<svg width="63" height="63" viewBox="0 0 63 63" fill="none" xmlns="http://www.w3.org/2000/svg">
<rect width="62.37" height="62.37" rx="10.08" fill="#F7F7FB"/>
<path d="M43.135 34.9975C42.76 35.3725 42.2975 35.5601 41.81 35.5601C41.3225 35.5601 40.8225 35.3601 40.41 34.9476C39.385 33.9226 39.31 31.1851 39.31 31.1851C39.31 31.1851 42.06 31.2601 43.085 32.2851C43.8975 33.0976 43.8725 34.26 43.135 34.9975ZM19.2975 32.2851C18.4725 33.0976 18.51 34.26 19.2475 34.9975C19.61 35.3725 20.085 35.5601 20.5725 35.5601C21.06 35.5601 21.56 35.3601 21.9725 34.9476C22.9975 33.9226 23.06 31.1851 23.06 31.1851C23.06 31.1851 20.3225 31.2601 19.2975 32.2851ZM42.36 29.9101C42.385 30.1726 42.135 30.385 41.885 30.31C40.7725 29.9975 39.6725 29.9476 39.3475 29.9351H39.31C38.985 29.9351 38.66 30.0726 38.4225 30.2976C38.185 30.5476 38.0475 30.8726 38.06 31.2226C38.0725 31.7601 38.21 34.5226 39.5225 35.8351C39.835 36.1601 40.1975 36.3975 40.585 36.56C40.785 36.6475 40.86 36.9101 40.7475 37.0976C38.7725 40.2976 35.235 42.4351 31.185 42.4351C27.135 42.4351 23.5975 40.2976 21.6225 37.0976C21.51 36.9101 21.5725 36.6475 21.785 36.56C22.1725 36.3975 22.535 36.1601 22.8475 35.8351C24.0975 34.5851 24.285 32.0351 24.31 31.3101V31.1851C24.31 30.4976 23.76 29.9351 23.06 29.9351H23.0225C22.685 29.9351 21.5975 29.9975 20.4975 30.31C20.2475 30.385 19.985 30.1726 20.01 29.9101C20.6475 24.2976 25.41 19.9351 31.185 19.9351C36.96 19.9351 41.7225 24.2976 42.36 29.9101ZM27.0725 29.3476C27.2225 28.8976 28.01 28.8976 28.1725 29.3476C28.31 29.7351 28.6725 29.9851 29.06 29.9851C29.16 29.9851 29.26 29.9726 29.36 29.9351C29.8475 29.7726 30.11 29.235 29.9475 28.7475C29.61 27.76 28.6725 27.0976 27.6225 27.0976C26.5725 27.0976 25.6475 27.76 25.2975 28.7475C25.135 29.235 25.385 29.7726 25.8725 29.9351C26.36 30.1101 26.8975 29.8476 27.06 29.3601L27.0725 29.3476ZM35.1725 34.2726C35.26 33.8726 34.835 33.5726 34.46 33.7226C32.2725 34.5976 30.0975 34.5976 27.91 33.7226C27.535 33.5726 27.11 33.8726 27.1975 34.2726C27.61 36.0851 29.235 37.4351 31.185 37.4351C33.135 37.4351 34.76 36.0851 35.1725 34.2726ZM37.0725 28.7351C36.735 27.7476 35.7975 27.0851 34.7475 27.0851C33.6975 27.0851 32.76 27.7476 32.4225 28.7351C32.26 29.2226 32.51 29.76 33.01 29.9225C33.11 29.96 33.21 29.9726 33.31 29.9726C33.6975 29.9726 34.06 29.7225 34.1975 29.335C34.3475 28.885 35.135 28.885 35.2975 29.335C35.4725 29.8225 35.9975 30.0851 36.485 29.9101C36.9725 29.7351 37.235 29.2101 37.06 28.7226L37.0725 28.7351Z" fill="#7F5EA3"/>
</svg>
