<svg width="63" height="64" viewBox="0 0 63 64" fill="none" xmlns="http://www.w3.org/2000/svg">
<rect y="1" width="62.37" height="62.37" rx="10.08" fill="#F7F7FB"/>
<path d="M41.334 33.3485C40.7517 31.6989 39.1399 30.5901 37.323 30.5901H25.132C23.3167 30.5901 21.7049 31.698 21.1243 33.3382L20.842 34.1046C21.6425 33.9145 21.6693 33.8386 22.66 33.8386H39.7097C40.8342 33.8386 40.7021 33.8956 41.6194 34.1232L41.334 33.3485ZM39.7097 35.4629H22.66C22.5245 35.4629 21.9318 35.4953 21.8301 35.5441C18.9509 35.9338 16.7322 38.3974 16.7322 41.256C16.7322 43.2193 18.1877 44.8581 20.1195 45.2347V46.1288C20.1195 47.4723 21.2591 48.5652 22.66 48.5652H24.3537C25.7546 48.5652 26.8942 47.4723 26.8942 46.1288V45.3167H35.4755V46.1288C35.4755 47.4723 36.6151 48.5652 38.016 48.5652H39.7097C41.1106 48.5652 42.2502 47.4723 42.2502 46.1288V45.2347C44.1821 44.8581 45.6376 43.2193 45.6376 41.256C45.6376 38.0694 42.8894 35.4629 39.7097 35.4629ZM21.8132 42.0682C20.8795 42.0682 20.1195 41.3393 20.1195 40.4439C20.1195 39.5485 20.8795 38.8197 21.8132 38.8197C22.7469 38.8197 23.5069 39.5485 23.5069 40.4439C23.5069 41.3393 22.7469 42.0682 21.8132 42.0682ZM32.0317 43.6924H30.338V42.0682H32.0317V43.6924ZM34.9674 39.3556C34.4931 40.0379 33.6577 40.4439 32.7939 40.4439H29.6605C28.7969 40.4439 27.9612 40.0379 27.487 39.3556C26.9201 38.5507 26.4649 37.7093 25.8102 37.0817H36.6442C35.9896 37.7094 35.5342 38.5507 34.9674 39.3556ZM40.5566 42.0682C39.6229 42.0682 38.8629 41.3393 38.8629 40.4439C38.8629 39.5485 39.6229 38.8197 40.5566 38.8197C41.4902 38.8197 42.2502 39.5485 42.2502 40.4439C42.2502 41.3393 41.4902 42.0682 40.5566 42.0682Z" fill="#7F5EA3"/>
<g filter="url(#filter0_d_231_8625)">
<path d="M31.1849 17.0371C27.6392 17.0371 24.7615 19.7969 24.7615 23.1973C24.7615 26.5977 27.6392 29.3574 31.1849 29.3574C34.7306 29.3574 37.6083 26.5977 37.6083 23.1973C37.6083 19.7969 34.7306 17.0371 31.1849 17.0371ZM33.4331 23.6593H31.6667V25.3533C31.6667 25.6059 31.4483 25.8153 31.1849 25.8153C30.9215 25.8153 30.7031 25.6059 30.7031 25.3533V23.6593H28.9367C28.6733 23.6593 28.4549 23.4498 28.4549 23.1973C28.4549 22.9447 28.6733 22.7352 28.9367 22.7352H30.7031V21.0412C30.7031 20.7886 30.9215 20.5792 31.1849 20.5792C31.4483 20.5792 31.6667 20.7886 31.6667 21.0412V22.7352H33.4331C33.6965 22.7352 33.9149 22.9447 33.9149 23.1973C33.9149 23.4498 33.6965 23.6593 33.4331 23.6593Z" fill="#7F5EA3"/>
</g>
<defs>
<filter id="filter0_d_231_8625" x="5.71081" y="-0.700825" width="50.9483" height="50.3164" filterUnits="userSpaceOnUse" color-interpolation-filters="sRGB">
<feFlood flood-opacity="0" result="BackgroundImageFix"/>
<feColorMatrix in="SourceAlpha" type="matrix" values="0 0 0 0 0 0 0 0 0 0 0 0 0 0 0 0 0 0 127 0" result="hardAlpha"/>
<feOffset dy="1.26"/>
<feGaussianBlur stdDeviation="8.883"/>
<feComposite in2="hardAlpha" operator="out"/>
<feColorMatrix type="matrix" values="0 0 0 0 0 0 0 0 0 0 0 0 0 0 0 0 0 0 0.06 0"/>
<feBlend mode="normal" in2="BackgroundImageFix" result="effect1_dropShadow_231_8625"/>
<feBlend mode="normal" in="SourceGraphic" in2="effect1_dropShadow_231_8625" result="shape"/>
</filter>
</defs>
</svg>
