<svg width="63" height="63" viewBox="0 0 63 63" fill="none" xmlns="http://www.w3.org/2000/svg">
<rect width="62.37" height="62.37" rx="10.08" fill="#F7F7FB"/>
<path d="M34.9351 19.9351C30.7976 19.9351 27.4351 23.2976 27.4351 27.4351C27.4351 28.1976 27.5476 28.9225 27.7601 29.61L19.9351 37.4351V42.4351H24.9351V38.6851H28.6851L32.7601 34.61C33.4476 34.8225 34.1726 34.9351 34.9351 34.9351C39.0726 34.9351 42.4351 31.5726 42.4351 27.4351C42.4351 23.2976 39.0726 19.9351 34.9351 19.9351ZM36.2101 27.7476C35.3488 27.7476 34.6412 27.0476 34.6412 26.1851C34.6412 25.3226 35.3351 24.6226 36.1976 24.6226H36.2101C37.0726 24.6226 37.7726 25.3226 37.7726 26.1851C37.7726 27.0476 37.0726 27.7476 36.2101 27.7476Z" fill="#7F5EA3"/>
</svg>
