<svg width="45" height="45" viewBox="0 0 45 45" fill="none" xmlns="http://www.w3.org/2000/svg">
<path d="M22.5 3.75C12.15 3.75 3.75 12.15 3.75 22.5C3.75 32.85 12.15 41.25 22.5 41.25C32.85 41.25 41.25 32.85 41.25 22.5C41.25 12.15 32.85 3.75 22.5 3.75ZM14.8688 18.2625C14.625 18.9938 13.8188 19.3875 13.0875 19.125C12.3563 18.8625 11.9625 18.075 12.225 17.3438C12.8063 15.6562 14.4 14.5125 16.2 14.5125C18 14.5125 19.5938 15.6375 20.175 17.3438C20.4188 18.075 20.0438 18.8812 19.3125 19.125C19.1625 19.1812 19.0125 19.2 18.8438 19.2C18.2625 19.2 17.7187 18.8437 17.5125 18.2437C17.325 17.7 16.7813 17.325 16.2 17.325C15.6188 17.325 15.075 17.7 14.8875 18.2437L14.8688 18.2625ZM22.5 33.75C18.7312 33.75 15.6188 30.975 15.075 27.3562C15 26.775 15.4313 26.25 16.0125 26.25H28.9875C29.5688 26.25 30 26.775 29.925 27.3562C29.4 30.975 26.2875 33.75 22.5 33.75ZM32.0813 19.1438C31.9313 19.2 31.7813 19.2188 31.6125 19.2188C31.0313 19.2188 30.4875 18.8625 30.2812 18.2625C30.0937 17.7188 29.55 17.3438 28.9688 17.3438C28.3875 17.3438 27.8438 17.7188 27.6562 18.2625C27.4125 18.9938 26.6063 19.3875 25.875 19.125C25.1438 18.8625 24.75 18.075 25.0125 17.3438C25.5937 15.6562 27.1875 14.5125 28.9875 14.5125C30.7875 14.5125 32.3813 15.6375 32.9625 17.3438C33.2063 18.075 32.8312 18.8812 32.1 19.125L32.0813 19.1438Z" fill="#B39F91"/>
</svg>
