<svg width="100" height="99" viewBox="0 0 100 99" fill="none" xmlns="http://www.w3.org/2000/svg">
<rect x="0.5" width="99" height="99" rx="16" fill="#F7F7FB"/>
<g clip-path="url(#clip0_230_3136)">
<path d="M46.833 45.25C47.3696 45.4878 47.8673 45.828 48.2988 46.2568H48.2998C49.2643 47.2816 49.7704 48.6377 49.6729 50.0059L49.6445 50.2793L49.6436 50.292L49.6426 50.3057C49.563 51.3405 49.8786 52.4059 50.6309 53.1582L59.2793 61.8066C59.9094 62.4368 59.975 63.3829 59.5059 64.0166L59.4053 64.1387C58.8544 64.7397 57.8719 64.8207 57.2275 64.3047L57.1035 64.1934L48.3145 55.4043C47.7063 54.7268 46.7939 54.4141 45.9219 54.4141H45.5273L45.4844 54.4219C44.0411 54.6728 42.5844 54.1742 41.4941 53.084L41.3418 52.9248C40.9876 52.5385 40.701 52.1049 40.4912 51.6416C41.264 52.2706 42.2616 52.6016 43.25 52.6016C44.51 52.6016 45.6209 52.1252 46.4863 51.2598C48.1036 49.6425 48.2185 47.0126 46.833 45.25ZM58.2061 61.2266C57.755 60.8617 57.0809 60.8617 56.6299 61.2266L56.5371 61.3105C56.0606 61.7871 56.0606 62.5958 56.5371 63.0723L57.1699 63.7051C57.2698 63.8049 57.3894 63.8998 57.54 63.9668C57.6929 64.0347 57.8518 64.0625 58.0156 64.0625C58.3258 64.0625 58.676 63.9607 58.9316 63.7051C59.4082 63.2286 59.4082 62.4199 58.9316 61.9434L58.2988 61.3105L58.2061 61.2266ZM50 27.5C51.123 27.5 52.1269 27.9325 52.957 28.6953L71.4424 47.251L71.4629 47.2715L71.4844 47.2891C71.6837 47.4485 71.7905 47.704 71.8555 47.999C71.8408 48.2478 71.7119 48.5188 71.5244 48.7119C71.0681 49.1078 70.3247 49.0787 69.9707 48.7246L69.9697 48.7236L51.4072 30.2314C51.0262 29.851 50.5451 29.6641 50 29.6641C49.5373 29.6641 48.981 29.8433 48.5918 30.2324L48.5908 30.2334L30.1152 48.7783C29.6594 49.1785 28.9119 49.1502 28.5566 48.7949L28.5371 48.7754L28.5156 48.7578L28.4443 48.6934C28.2902 48.5323 28.2109 48.3006 28.2109 48.0234C28.2109 47.7576 28.3511 47.4575 28.5566 47.252L28.5576 47.251L47.042 28.6953C47.8722 27.9322 48.8768 27.5 50 27.5ZM63.7812 29.2578H65.3984C66.051 29.2578 66.5156 29.7515 66.5156 30.3047V38.7305L62.7344 34.9492V30.3047C62.7344 29.7371 63.2136 29.2578 63.7812 29.2578Z" fill="#B39F91" stroke="#B39F91"/>
<path d="M70.0391 70.5234H68.0703V49.9219C68.0703 49.8516 68.0703 49.7812 68.1406 49.7109L50 31.6406L31.9297 49.7109C31.9297 49.7812 32 49.8516 32 49.9219V70.5234H30.6641C30.2422 70.5234 29.8906 70.875 29.8906 71.2969C29.9609 71.6484 30.3125 72 30.6641 72H70.0391C70.4609 72 70.8125 71.6484 70.8125 71.2266C70.8125 70.875 70.4609 70.5234 70.0391 70.5234ZM38.0469 49.2188C38.1172 48.5859 38.6094 48.0938 39.2422 48.0938C39.5234 48.0938 39.875 48.2344 40.0859 48.4453L41.4219 49.7812C42.4062 50.7656 44.0234 50.7656 45.0078 49.7812C45.9922 48.7969 45.9922 47.1797 45.0078 46.1953L43.6719 44.8594C43.3203 44.5078 43.25 44.0156 43.3906 43.5938C43.5313 43.1719 43.9531 42.8906 44.4453 42.8203C46.4141 42.6797 48.3125 43.3828 49.6484 44.7891C51.125 46.2656 51.8281 48.375 51.6172 50.4844C51.5469 50.9062 51.6875 51.3984 52.0391 51.6797L60.6875 60.3281C62.0938 61.7344 62.1641 63.9844 60.8281 65.3906C60.125 66.0938 59.2109 66.5156 58.2266 66.5156C57.2422 66.5156 56.3984 66.1641 55.6953 65.4609L46.9766 56.8125C46.625 56.4609 46.2031 56.3203 45.7812 56.3906C43.6719 56.6719 41.5625 55.9688 40.0859 54.4219C38.6797 53.0859 37.9766 51.1875 38.0469 49.2188Z" fill="#B39F91"/>
</g>
<defs>
<clipPath id="clip0_230_3136">
<rect width="45" height="45" fill="white" transform="translate(27.5 27)"/>
</clipPath>
</defs>
</svg>
