<svg width="46" height="45" viewBox="0 0 46 45" fill="none" xmlns="http://www.w3.org/2000/svg">
<g clip-path="url(#clip0_230_8413)">
<path d="M19.833 18.25C20.3696 18.4878 20.8673 18.828 21.2988 19.2568H21.2998C22.2643 20.2816 22.7704 21.6377 22.6729 23.0059L22.6445 23.2793L22.6436 23.292L22.6426 23.3057C22.563 24.3405 22.8786 25.4059 23.6309 26.1582L32.2793 34.8066C32.9094 35.4368 32.975 36.3829 32.5059 37.0166L32.4053 37.1387C31.8544 37.7397 30.8719 37.8207 30.2275 37.3047L30.1035 37.1934L21.3145 28.4043C20.7063 27.7268 19.7939 27.4141 18.9219 27.4141H18.5273L18.4844 27.4219C17.0411 27.6728 15.5844 27.1742 14.4941 26.084L14.3418 25.9248C13.9876 25.5385 13.701 25.1049 13.4912 24.6416C14.264 25.2706 15.2616 25.6016 16.25 25.6016C17.51 25.6016 18.6209 25.1252 19.4863 24.2598C21.1036 22.6425 21.2185 20.0126 19.833 18.25ZM31.2061 34.2266C30.755 33.8617 30.0809 33.8617 29.6299 34.2266L29.5371 34.3105C29.0606 34.7871 29.0606 35.5958 29.5371 36.0723L30.1699 36.7051C30.2698 36.8049 30.3894 36.8998 30.54 36.9668C30.6929 37.0347 30.8518 37.0625 31.0156 37.0625C31.3258 37.0625 31.676 36.9607 31.9316 36.7051C32.4082 36.2286 32.4082 35.4199 31.9316 34.9434L31.2988 34.3105L31.2061 34.2266ZM23 0.5C24.123 0.5 25.1269 0.932456 25.957 1.69531L44.4424 20.251L44.4629 20.2715L44.4844 20.2891C44.6837 20.4485 44.7905 20.704 44.8555 20.999C44.8408 21.2478 44.7119 21.5188 44.5244 21.7119C44.0681 22.1078 43.3247 22.0787 42.9707 21.7246L42.9697 21.7236L24.4072 3.23145C24.0262 2.85095 23.5451 2.66406 23 2.66406C22.5373 2.66406 21.981 2.84326 21.5918 3.23242L21.5908 3.2334L3.11523 21.7783C2.65937 22.1785 1.91191 22.1502 1.55664 21.7949L1.53711 21.7754L1.51562 21.7578L1.44434 21.6934C1.29018 21.5323 1.21094 21.3006 1.21094 21.0234C1.21094 20.7576 1.35114 20.4575 1.55664 20.252L1.55762 20.251L20.042 1.69531C20.8722 0.932153 21.8768 0.5 23 0.5ZM36.7812 2.25781H38.3984C39.051 2.25781 39.5156 2.75147 39.5156 3.30469V11.7305L35.7344 7.94922V3.30469C35.7344 2.73708 36.2136 2.25781 36.7812 2.25781Z" fill="#B39F91" stroke="#B39F91"/>
<path d="M43.0391 43.5234H41.0703V22.9219C41.0703 22.8516 41.0703 22.7812 41.1406 22.7109L23 4.64062L4.92969 22.7109C4.92969 22.7812 5 22.8516 5 22.9219V43.5234H3.66406C3.24219 43.5234 2.89062 43.875 2.89062 44.2969C2.96094 44.6484 3.3125 45 3.66406 45H43.0391C43.4609 45 43.8125 44.6484 43.8125 44.2266C43.8125 43.875 43.4609 43.5234 43.0391 43.5234ZM11.0469 22.2188C11.1172 21.5859 11.6094 21.0938 12.2422 21.0938C12.5234 21.0938 12.875 21.2344 13.0859 21.4453L14.4219 22.7812C15.4062 23.7656 17.0234 23.7656 18.0078 22.7812C18.9922 21.7969 18.9922 20.1797 18.0078 19.1953L16.6719 17.8594C16.3203 17.5078 16.25 17.0156 16.3906 16.5938C16.5313 16.1719 16.9531 15.8906 17.4453 15.8203C19.4141 15.6797 21.3125 16.3828 22.6484 17.7891C24.125 19.2656 24.8281 21.375 24.6172 23.4844C24.5469 23.9062 24.6875 24.3984 25.0391 24.6797L33.6875 33.3281C35.0938 34.7344 35.1641 36.9844 33.8281 38.3906C33.125 39.0938 32.2109 39.5156 31.2266 39.5156C30.2422 39.5156 29.3984 39.1641 28.6953 38.4609L19.9766 29.8125C19.625 29.4609 19.2031 29.3203 18.7812 29.3906C16.6719 29.6719 14.5625 28.9688 13.0859 27.4219C11.6797 26.0859 10.9766 24.1875 11.0469 22.2188Z" fill="#B39F91"/>
</g>
<defs>
<clipPath id="clip0_230_8413">
<rect width="45" height="45" fill="white" transform="translate(0.5)"/>
</clipPath>
</defs>
</svg>
