<svg width="100" height="100" viewBox="0 0 100 100" fill="none" xmlns="http://www.w3.org/2000/svg">
<rect x="0.5" y="1" width="99" height="99" rx="16" fill="#F7F7FB"/>
<path d="M66.1096 52.3465C65.1855 49.7281 62.627 47.9681 59.7431 47.9681H40.3922C37.5108 47.9681 34.9524 49.7268 34.0309 52.3302L33.5827 53.5467C34.8533 53.2449 34.8959 53.1245 36.4685 53.1245H63.5315C65.3164 53.1245 65.1067 53.215 66.5628 53.5763L66.1096 52.3465ZM63.5315 55.7027H36.4685C36.2534 55.7027 35.3125 55.7542 35.1512 55.8316C30.581 56.4503 27.0592 60.3606 27.0592 64.8982C27.0592 68.0146 29.3695 70.6158 32.436 71.2136V72.6328C32.436 74.7653 34.2449 76.5001 36.4685 76.5001H39.1569C41.3805 76.5001 43.1895 74.7653 43.1895 72.6328V71.3437H56.8106V72.6328C56.8106 74.7653 58.6195 76.5001 60.8431 76.5001H63.5315C65.7551 76.5001 67.564 74.7653 67.564 72.6328V71.2136C70.6305 70.6158 72.9408 68.0146 72.9408 64.8982C72.9408 59.8401 68.5786 55.7027 63.5315 55.7027ZM35.1243 66.1873C33.6423 66.1873 32.436 65.0304 32.436 63.6091C32.436 62.1879 33.6423 61.031 35.1243 61.031C36.6063 61.031 37.8127 62.1879 37.8127 63.6091C37.8127 65.0304 36.6063 66.1873 35.1243 66.1873ZM51.3442 68.7655H48.6558V66.1873H51.3442V68.7655ZM56.004 61.8817C55.2512 62.9646 53.9251 63.6091 52.554 63.6091H47.5804C46.2095 63.6091 44.8831 62.9646 44.1303 61.8817C43.2306 60.6041 42.5079 59.2684 41.4688 58.2723H58.6655C57.6266 59.2687 56.9037 60.604 56.004 61.8817ZM64.8757 66.1873C63.3937 66.1873 62.1873 65.0304 62.1873 63.6091C62.1873 62.1879 63.3937 61.031 64.8757 61.031C66.3577 61.031 67.564 62.1879 67.564 63.6091C67.564 65.0304 66.3577 66.1873 64.8757 66.1873Z" fill="#B39F91"/>
<g filter="url(#filter0_d_230_3058)">
<path d="M50 26.4554C44.3718 26.4554 39.8041 30.836 39.8041 36.2335C39.8041 41.6309 44.3718 46.0115 50 46.0115C55.6281 46.0115 60.1959 41.6309 60.1959 36.2335C60.1959 30.836 55.6281 26.4554 50 26.4554ZM53.5686 36.9668H50.7647V39.6558C50.7647 40.0567 50.418 40.3891 50 40.3891C49.582 40.3891 49.2353 40.0567 49.2353 39.6558V36.9668H46.4314C46.0134 36.9668 45.6667 36.6344 45.6667 36.2335C45.6667 35.8326 46.0134 35.5001 46.4314 35.5001H49.2353V32.8112C49.2353 32.4103 49.582 32.0778 50 32.0778C50.418 32.0778 50.7647 32.4103 50.7647 32.8112V35.5001H53.5686C53.9866 35.5001 54.3332 35.8326 54.3332 36.2335C54.3332 36.6344 53.9866 36.9668 53.5686 36.9668Z" fill="#B39F91"/>
</g>
<defs>
<filter id="filter0_d_230_3058" x="9.56489" y="-1.70012" width="80.8702" height="79.8673" filterUnits="userSpaceOnUse" color-interpolation-filters="sRGB">
<feFlood flood-opacity="0" result="BackgroundImageFix"/>
<feColorMatrix in="SourceAlpha" type="matrix" values="0 0 0 0 0 0 0 0 0 0 0 0 0 0 0 0 0 0 127 0" result="hardAlpha"/>
<feOffset dy="2"/>
<feGaussianBlur stdDeviation="14.1"/>
<feComposite in2="hardAlpha" operator="out"/>
<feColorMatrix type="matrix" values="0 0 0 0 0 0 0 0 0 0 0 0 0 0 0 0 0 0 0.06 0"/>
<feBlend mode="normal" in2="BackgroundImageFix" result="effect1_dropShadow_230_3058"/>
<feBlend mode="normal" in="SourceGraphic" in2="effect1_dropShadow_230_3058" result="shape"/>
</filter>
</defs>
</svg>
