<svg width="78" height="77" viewBox="0 0 78 77" fill="none" xmlns="http://www.w3.org/2000/svg">
<path d="M55.1096 52.3465C54.1855 49.7281 51.627 47.9681 48.7431 47.9681H29.3922C26.5108 47.9681 23.9524 49.7268 23.0309 52.3302L22.5827 53.5467C23.8533 53.2449 23.8959 53.1245 25.4685 53.1245H52.5315C54.3164 53.1245 54.1067 53.215 55.5628 53.5763L55.1096 52.3465ZM52.5315 55.7027H25.4685C25.2534 55.7027 24.3125 55.7542 24.1512 55.8316C19.581 56.4503 16.0592 60.3606 16.0592 64.8982C16.0592 68.0146 18.3695 70.6158 21.436 71.2136V72.6328C21.436 74.7653 23.2449 76.5001 25.4685 76.5001H28.1569C30.3805 76.5001 32.1895 74.7653 32.1895 72.6328V71.3437H45.8106V72.6328C45.8106 74.7653 47.6195 76.5001 49.8431 76.5001H52.5315C54.7551 76.5001 56.564 74.7653 56.564 72.6328V71.2136C59.6305 70.6158 61.9408 68.0146 61.9408 64.8982C61.9408 59.8401 57.5786 55.7027 52.5315 55.7027ZM24.1243 66.1873C22.6423 66.1873 21.436 65.0304 21.436 63.6091C21.436 62.1879 22.6423 61.031 24.1243 61.031C25.6063 61.031 26.8127 62.1879 26.8127 63.6091C26.8127 65.0304 25.6063 66.1873 24.1243 66.1873ZM40.3442 68.7655H37.6558V66.1873H40.3442V68.7655ZM45.004 61.8817C44.2512 62.9646 42.9251 63.6091 41.554 63.6091H36.5804C35.2095 63.6091 33.8831 62.9646 33.1303 61.8817C32.2306 60.6041 31.5079 59.2684 30.4688 58.2723H47.6655C46.6266 59.2687 45.9037 60.604 45.004 61.8817ZM53.8757 66.1873C52.3937 66.1873 51.1873 65.0304 51.1873 63.6091C51.1873 62.1879 52.3937 61.031 53.8757 61.031C55.3577 61.031 56.564 62.1879 56.564 63.6091C56.564 65.0304 55.3577 66.1873 53.8757 66.1873Z" fill="#B39F91"/>
<g filter="url(#filter0_d_230_3059)">
<path d="M39 26.4554C33.3718 26.4554 28.8041 30.836 28.8041 36.2335C28.8041 41.6309 33.3718 46.0115 39 46.0115C44.6281 46.0115 49.1959 41.6309 49.1959 36.2335C49.1959 30.836 44.6281 26.4554 39 26.4554ZM42.5686 36.9668H39.7647V39.6558C39.7647 40.0567 39.418 40.3891 39 40.3891C38.582 40.3891 38.2353 40.0567 38.2353 39.6558V36.9668H35.4314C35.0134 36.9668 34.6667 36.6344 34.6667 36.2335C34.6667 35.8326 35.0134 35.5001 35.4314 35.5001H38.2353V32.8112C38.2353 32.4103 38.582 32.0778 39 32.0778C39.418 32.0778 39.7647 32.4103 39.7647 32.8112V35.5001H42.5686C42.9866 35.5001 43.3332 35.8326 43.3332 36.2335C43.3332 36.6344 42.9866 36.9668 42.5686 36.9668Z" fill="#B39F91"/>
</g>
<defs>
<filter id="filter0_d_230_3059" x="-1.43511" y="-1.70012" width="80.8702" height="79.8673" filterUnits="userSpaceOnUse" color-interpolation-filters="sRGB">
<feFlood flood-opacity="0" result="BackgroundImageFix"/>
<feColorMatrix in="SourceAlpha" type="matrix" values="0 0 0 0 0 0 0 0 0 0 0 0 0 0 0 0 0 0 127 0" result="hardAlpha"/>
<feOffset dy="2"/>
<feGaussianBlur stdDeviation="14.1"/>
<feComposite in2="hardAlpha" operator="out"/>
<feColorMatrix type="matrix" values="0 0 0 0 0 0 0 0 0 0 0 0 0 0 0 0 0 0 0.06 0"/>
<feBlend mode="normal" in2="BackgroundImageFix" result="effect1_dropShadow_230_3059"/>
<feBlend mode="normal" in="SourceGraphic" in2="effect1_dropShadow_230_3059" result="shape"/>
</filter>
</defs>
</svg>
