<svg width="99" height="99" viewBox="0 0 99 99" fill="none" xmlns="http://www.w3.org/2000/svg">
<rect width="99" height="99" rx="16" fill="#F7F7FB"/>
<path d="M49.5 30.75C39.15 30.75 30.75 39.15 30.75 49.5C30.75 59.85 39.15 68.25 49.5 68.25C59.85 68.25 68.25 59.85 68.25 49.5C68.25 39.15 59.85 30.75 49.5 30.75ZM41.8688 45.2625C41.625 45.9938 40.8188 46.3875 40.0875 46.125C39.3563 45.8625 38.9625 45.075 39.225 44.3438C39.8063 42.6562 41.4 41.5125 43.2 41.5125C45 41.5125 46.5938 42.6375 47.175 44.3438C47.4188 45.075 47.0438 45.8812 46.3125 46.125C46.1625 46.1812 46.0125 46.2 45.8438 46.2C45.2625 46.2 44.7187 45.8437 44.5125 45.2437C44.325 44.7 43.7813 44.325 43.2 44.325C42.6188 44.325 42.075 44.7 41.8875 45.2437L41.8688 45.2625ZM49.5 60.75C45.7312 60.75 42.6188 57.975 42.075 54.3562C42 53.775 42.4313 53.25 43.0125 53.25H55.9875C56.5688 53.25 57 53.775 56.925 54.3562C56.4 57.975 53.2875 60.75 49.5 60.75ZM59.0813 46.1438C58.9313 46.2 58.7813 46.2188 58.6125 46.2188C58.0313 46.2188 57.4875 45.8625 57.2812 45.2625C57.0937 44.7188 56.55 44.3438 55.9688 44.3438C55.3875 44.3438 54.8438 44.7188 54.6562 45.2625C54.4125 45.9938 53.6063 46.3875 52.875 46.125C52.1438 45.8625 51.75 45.075 52.0125 44.3438C52.5937 42.6562 54.1875 41.5125 55.9875 41.5125C57.7875 41.5125 59.3813 42.6375 59.9625 44.3438C60.2063 45.075 59.8312 45.8812 59.1 46.125L59.0813 46.1438Z" fill="#B39F91"/>
</svg>
