<svg width="100" height="25" viewBox="0 0 100 25" fill="none" xmlns="http://www.w3.org/2000/svg">
<path d="M18.4971 2.97142C18.6262 3.09091 18.7479 3.21356 18.8664 3.34389C18.9826 3.46422 19.0985 3.57017 19.2248 3.67867C19.58 3.99332 19.9095 4.33409 20.2413 4.67367C20.3601 4.79516 20.479 4.91645 20.598 5.03768C20.8933 5.33863 21.1883 5.63994 21.4832 5.94123C21.7332 6.19656 21.9834 6.45175 22.2337 6.70676C22.35 6.82545 22.4662 6.94434 22.5824 7.06323C22.9029 7.39034 23.2244 7.71151 23.5702 8.01127C23.8629 8.2741 24.1361 8.55879 24.4127 8.83884C24.4458 8.87233 24.479 8.90582 24.5131 8.94033C24.6881 9.11721 24.863 9.29428 25.0377 9.47152C25.2169 9.65327 25.3967 9.83442 25.5767 10.0154C25.7162 10.156 25.8554 10.2971 25.9944 10.4382C26.0605 10.5052 26.1267 10.572 26.1931 10.6386C26.7428 11.1905 27.2377 11.7171 27.2563 12.5463C27.2528 13.7494 26.6055 14.3185 25.812 15.121C25.686 15.2482 25.5598 15.3752 25.4335 15.5022C25.2647 15.6719 25.0962 15.8419 24.9277 16.0121C24.8891 16.0507 24.8506 16.0894 24.8108 16.1293C24.5339 16.4085 24.5339 16.4085 24.438 16.783C24.4466 17.1606 24.6698 17.335 24.9197 17.5906C24.9882 17.6667 25.0563 17.7431 25.1242 17.8198C25.1978 17.9025 25.2715 17.9852 25.3452 18.0679C25.3805 18.1078 25.4159 18.1477 25.4523 18.1887C25.693 18.4544 25.903 18.6745 26.2685 18.7287C26.5266 18.6904 26.5984 18.6312 26.7823 18.4391C26.908 18.1938 27.0043 17.9377 27.1034 17.6804C27.8561 15.8074 28.8076 14.0604 29.9936 12.4347C30.021 12.397 30.0485 12.3592 30.0767 12.3203C31.1277 10.8812 32.3501 9.43525 33.7415 8.32871C33.8979 8.2034 34.0484 8.07292 34.1985 7.94002C35.4197 6.8639 36.8054 5.98741 38.2145 5.19041C38.2661 5.16114 38.3177 5.13188 38.3709 5.10172C39.6815 4.36513 41.0505 3.77913 42.4695 3.29774C42.5344 3.27564 42.5344 3.27564 42.6005 3.2531C43.0769 3.09186 43.5561 2.94511 44.042 2.81642C44.1065 2.7988 44.1065 2.7988 44.1722 2.78082C44.3896 2.72529 44.5529 2.69152 44.7656 2.77563C44.6755 2.81887 44.6755 2.81887 44.5837 2.86298C42.8956 3.67566 41.2763 4.53551 39.7559 5.64726C39.7109 5.68005 39.6659 5.71284 39.6196 5.74662C38.2733 6.73382 36.9794 7.8854 35.9024 9.17153C35.8518 9.23017 35.8012 9.28881 35.7491 9.34923C33.3855 12.1081 31.7391 15.5191 30.884 19.0616C30.6034 20.2239 30.0662 21.1405 29.0467 21.7857C28.329 22.1713 27.4234 22.4374 26.6097 22.2407C25.9392 21.9422 25.3664 21.1861 24.8539 20.6613C24.7427 20.5475 24.6313 20.4339 24.5198 20.3203C24.2836 20.0796 24.0477 19.8386 23.8118 19.5975C23.5371 19.3168 23.2622 19.0362 22.9871 18.7558C22.8783 18.6448 22.7696 18.5336 22.661 18.4224C22.3539 18.1088 22.0446 17.8028 21.7136 17.5152C21.4053 17.2375 21.1166 16.9377 20.8246 16.6428C20.7893 16.6072 20.754 16.5716 20.7177 16.535C20.5314 16.347 20.3453 16.1589 20.1594 15.9706C19.9686 15.7774 19.7771 15.5851 19.5854 15.3929C19.4368 15.2436 19.2888 15.0937 19.1409 14.9437C19.0706 14.8725 19.0001 14.8016 18.9293 14.7309C18.3143 14.1159 17.9074 13.6151 17.899 12.7162C17.8974 11.9044 18.2528 11.3773 18.7986 10.8093C18.8855 10.7214 18.9728 10.6339 19.0603 10.5467C19.1067 10.4999 19.153 10.4532 19.2008 10.405C19.3473 10.2573 19.4942 10.1101 19.6411 9.96286C19.7892 9.81422 19.9372 9.66548 20.0849 9.51654C20.1765 9.42426 20.2683 9.33216 20.3603 9.24024C20.4014 9.19882 20.4426 9.15739 20.4851 9.11471C20.5214 9.07832 20.5578 9.04192 20.5952 9.00442C20.7257 8.86114 20.7462 8.77227 20.7771 8.576C20.7436 8.31202 20.725 8.27303 20.5589 8.0883C20.518 8.04285 20.4772 7.9974 20.4351 7.95057C20.1755 7.67253 19.9118 7.39907 19.6452 7.12794C19.5886 7.06968 19.5321 7.01143 19.4738 6.9514C19.4189 6.8955 19.364 6.83959 19.3075 6.78199C19.2582 6.73166 19.2089 6.68132 19.1582 6.62946C18.935 6.4267 18.7633 6.31057 18.465 6.26727C18.1758 6.30926 18.1075 6.40394 17.9191 6.62623C17.8139 6.81955 17.8139 6.81955 17.7322 7.03362C17.7162 7.07255 17.7002 7.11147 17.6838 7.15158C17.6496 7.23487 17.6157 7.31828 17.5821 7.40182C17.4926 7.62368 17.4 7.84418 17.3072 8.06459C17.2885 8.10891 17.2698 8.15323 17.2506 8.19889C16.4546 10.0719 15.3402 11.8405 14.0655 13.4137C14.0366 13.4495 14.0076 13.4853 13.9778 13.5222C13.3831 14.2538 12.7533 14.948 12.0946 15.6205C12.0496 15.6665 12.0046 15.7125 11.9582 15.76C11.6649 16.0571 11.3623 16.3389 11.0469 16.6117C10.9855 16.6649 10.9855 16.6649 10.9228 16.7193C7.87056 19.3476 3.97754 21.5842 0 22.2897C0 22.2466 0 22.2035 0 22.1591C0.0691024 22.1278 0.0691024 22.1278 0.139601 22.0958C2.63574 20.9562 4.95113 19.543 6.97982 17.6628C7.11064 17.5423 7.24359 17.4255 7.37797 17.3092C7.60463 17.1083 7.81915 16.8965 8.03227 16.681C8.06327 16.6498 8.09426 16.6186 8.1262 16.5865C11.0279 13.6254 12.7431 9.84754 13.853 5.88034C14.1789 4.72535 14.6775 3.78332 15.7354 3.16722C16.5247 2.77249 17.718 2.35428 18.4971 2.97142ZM15.6712 5.84305C15.6385 5.92441 15.6065 6.00605 15.5748 6.08779C15.5569 6.13322 15.5391 6.17865 15.5206 6.22546C15.4659 6.38241 15.4659 6.38241 15.4785 6.62623C15.5633 6.62623 15.648 6.62623 15.7354 6.62623C15.799 6.38932 15.8626 6.15241 15.9281 5.90832C15.8433 5.88678 15.7585 5.86524 15.6712 5.84305ZM14.772 8.45363C14.6644 8.68858 14.5575 8.9239 14.4509 9.1593C14.4202 9.22614 14.3896 9.29298 14.358 9.36185C14.3291 9.42599 14.3001 9.49014 14.2702 9.55624C14.2433 9.61536 14.2164 9.67449 14.1887 9.73541C14.1181 9.89231 14.1181 9.89231 14.1297 10.0852C14.3313 10.0404 14.3313 10.0404 14.4091 9.87477C14.4377 9.81222 14.4663 9.74968 14.4958 9.68524C14.5427 9.58396 14.5427 9.58396 14.5905 9.48065C14.6386 9.37408 14.6386 9.37408 14.6877 9.26535C14.7205 9.19405 14.7534 9.12275 14.7872 9.04929C14.8683 8.87276 14.9489 8.69596 15.0289 8.51889C14.9441 8.49735 14.8593 8.47582 14.772 8.45363ZM34.2325 9.36733C34.0629 9.53962 33.8934 9.71192 33.7187 9.88944C33.7399 9.93252 33.7611 9.97559 33.7829 10.02C33.9525 9.84767 34.122 9.67537 34.2967 9.49786C34.2755 9.45478 34.2543 9.41171 34.2325 9.36733ZM33.6545 10.02C33.5909 10.0846 33.5273 10.1492 33.4618 10.2158C33.483 10.2588 33.5042 10.3019 33.526 10.3463C33.5896 10.2817 33.6532 10.2171 33.7187 10.1505C33.6975 10.1074 33.6763 10.0643 33.6545 10.02ZM21.0662 11.26C21.0227 11.3034 20.9792 11.3468 20.9344 11.3915C20.5819 11.769 20.3559 12.2016 20.3276 12.7284C20.3703 13.3676 20.6508 13.7443 21.0822 14.1887C21.1228 14.2307 21.1634 14.2726 21.2052 14.3158C21.6046 14.7096 22.008 14.953 22.5709 14.9854C23.2181 14.9644 23.5775 14.6471 24.0206 14.1969C24.0686 14.1535 24.1166 14.1101 24.1661 14.0653C24.5802 13.6819 24.7954 13.2658 24.8234 12.6917C24.7945 12.0871 24.4859 11.6804 24.0848 11.26C24.0474 11.2188 24.0101 11.1775 23.9716 11.1351C23.631 10.7695 23.2745 10.5052 22.7671 10.4636C21.9834 10.4499 21.6172 10.701 21.0662 11.26ZM13.1021 11.7821C12.9905 11.9113 12.9905 11.9113 12.8866 12.0819C12.8467 12.1438 12.8067 12.2056 12.7656 12.2693C12.7243 12.3347 12.683 12.4 12.6405 12.4674C12.5985 12.5328 12.5565 12.5981 12.5132 12.6655C12.4092 12.8275 12.3058 12.9899 12.203 13.1527C12.2453 13.1957 12.2877 13.2388 12.3314 13.2832C12.4563 13.1068 12.5806 12.9299 12.7047 12.7529C12.7399 12.7033 12.775 12.6536 12.8112 12.6025C12.9971 12.3369 13.1618 12.079 13.2948 11.7821C13.2312 11.7821 13.1676 11.7821 13.1021 11.7821ZM32.1773 11.8474C32.0683 11.9852 31.9675 12.1227 31.8682 12.2675C31.825 12.3296 31.825 12.3296 31.781 12.393C31.5703 12.7001 31.3795 13.0136 31.2139 13.3485C31.2775 13.3485 31.341 13.3485 31.4066 13.3485C31.5094 13.2074 31.599 13.0701 31.6875 12.9202C31.7387 12.8361 31.79 12.752 31.8413 12.668C31.8659 12.6276 31.8904 12.5871 31.9158 12.5455C31.9988 12.4118 32.0884 12.2842 32.1813 12.1574C32.318 11.9967 32.318 11.9967 32.3057 11.8474C32.2633 11.8474 32.2209 11.8474 32.1773 11.8474ZM10.8141 14.9474C10.7637 15.0013 10.7134 15.0551 10.6615 15.1106C10.6827 15.1537 10.7039 15.1967 10.7258 15.2411C10.8529 15.0904 10.9801 14.9396 11.1111 14.7843C10.9594 14.7693 10.9594 14.7693 10.8141 14.9474ZM30.1863 15.0453C30.0784 15.2679 29.9717 15.491 29.8651 15.7143C29.8345 15.7775 29.8039 15.8406 29.7723 15.9057C29.7433 15.9667 29.7143 16.0277 29.6845 16.0906C29.6576 16.1466 29.6307 16.2027 29.603 16.2604C29.5286 16.4287 29.5286 16.4287 29.544 16.6769C29.6076 16.6769 29.6712 16.6769 29.7367 16.6769C29.8443 16.442 29.9511 16.2067 30.0578 15.9713C30.0884 15.9044 30.1191 15.8376 30.1506 15.7687C30.1796 15.7046 30.2086 15.6404 30.2384 15.5743C30.2653 15.5152 30.2923 15.4561 30.32 15.3951C30.3906 15.2382 30.3906 15.2382 30.3789 15.0453C30.3153 15.0453 30.2518 15.0453 30.1863 15.0453ZM10.5973 15.2411C10.3854 15.4565 10.1734 15.6719 9.95504 15.8938C9.97624 15.9368 9.99743 15.9799 10.0193 16.0243C10.2312 15.8089 10.4432 15.5935 10.6615 15.3716C10.6403 15.3286 10.6191 15.2855 10.5973 15.2411ZM28.7733 18.5043C28.6779 18.8597 28.6779 18.8597 28.5806 19.2222C28.6654 19.2438 28.7502 19.2653 28.8375 19.2875C28.87 19.1938 28.902 19.1 28.9338 19.0061C28.9517 18.9538 28.9696 18.9016 28.988 18.8477C29.0391 18.6944 29.0391 18.6944 29.0302 18.5043C28.9454 18.5043 28.8606 18.5043 28.7733 18.5043Z" fill="white"/>
<path d="M23.1432 11.1194C23.2778 11.1995 23.3895 11.2861 23.5067 11.3906C23.5524 11.4308 23.5981 11.4711 23.6452 11.5125C23.9652 11.8153 24.1847 12.0863 24.2308 12.544C24.247 13.0145 24.1696 13.3008 23.863 13.6675C23.7741 13.758 23.7741 13.758 23.6833 13.8503C23.6247 13.9111 23.5661 13.9719 23.5057 14.0346C23.1797 14.3108 22.8573 14.4347 22.4307 14.4142C21.847 14.3276 21.4304 13.8531 21.0661 13.4138C20.8797 13.0464 20.8705 12.6248 20.9751 12.2276C21.1735 11.7681 21.5609 11.4214 21.9492 11.1255C22.3339 11.0127 22.7613 10.9794 23.1432 11.1194Z" fill="white"/>
<path d="M12.0362 0.00930875C12.1288 0.009036 12.2215 0.00867831 12.3142 0.00824364C12.5674 0.00730393 12.8207 0.00757616 13.0739 0.00805874C13.3476 0.00836831 13.6213 0.00755043 13.8949 0.00688284C14.4306 0.00576218 14.9662 0.00570603 15.5018 0.0060483C15.9373 0.00631239 16.3729 0.0062175 16.8084 0.00586894C16.9015 0.00579567 16.9015 0.00579567 16.9965 0.00572092C17.1225 0.00562097 17.2486 0.00552057 17.3747 0.00541973C18.5564 0.00452436 19.7381 0.00487858 20.9198 0.00562761C21.9999 0.00627567 23.0799 0.0054315 24.16 0.00386977C25.2701 0.00227677 26.3801 0.00165114 27.4902 0.00208497C28.113 0.00231265 28.7358 0.00216876 29.3586 0.00102436C29.8888 6.21116e-05 30.419 2.39163e-05 30.9492 0.00115951C31.2195 0.00171392 31.4898 0.00185764 31.7601 0.000855933C32.008 -5.1429e-05 32.2558 0.000267715 32.5037 0.00152419C32.6349 0.00188335 32.766 0.000971747 32.8971 0C33.7348 0.00674266 34.4197 0.204006 35.0675 0.752518C35.113 0.789956 35.1585 0.827393 35.2055 0.865966C35.7525 1.36324 36.109 2.13634 36.174 2.87766C36.1825 3.06758 36.1872 3.25712 36.1899 3.44722C36.191 3.51654 36.192 3.58585 36.1931 3.65726C36.1948 3.80305 36.1962 3.94884 36.1972 4.09464C36.1987 4.24352 36.2014 4.39239 36.2051 4.54123C36.2106 4.75719 36.2127 4.97294 36.214 5.18896C36.2163 5.25525 36.2185 5.32155 36.2208 5.38985C36.2181 5.8403 36.2181 5.8403 36.0457 6.03996C35.7154 6.29999 35.7154 6.29999 35.5171 6.29999C35.5168 6.25743 35.5166 6.21487 35.5163 6.17102C35.5136 5.72522 35.5092 5.27946 35.5037 4.83369C35.5019 4.66766 35.5006 4.50163 35.4996 4.3356C35.4983 4.09596 35.4953 3.85638 35.492 3.61676C35.4918 3.50668 35.4918 3.50668 35.4917 3.39438C35.4777 2.61399 35.2373 1.89816 34.6821 1.34168C34.0528 0.80385 33.3983 0.713826 32.5978 0.718929C32.5055 0.718581 32.4132 0.718119 32.321 0.717555C32.0692 0.716346 31.8175 0.716749 31.5658 0.717435C31.2936 0.717893 31.0214 0.716846 30.7492 0.715999C30.2166 0.714589 29.6841 0.714594 29.1516 0.715126C28.7186 0.715538 28.2856 0.715463 27.8526 0.715043C27.7909 0.714984 27.7292 0.714925 27.6656 0.714865C27.5402 0.714744 27.4148 0.714622 27.2894 0.7145C26.1147 0.713419 24.9399 0.713986 23.7651 0.715087C22.6912 0.716046 21.6174 0.715091 20.5435 0.713209C19.4398 0.711289 18.336 0.710575 17.2322 0.711198C17.1073 0.711264 16.9824 0.711329 16.8574 0.711392C16.7652 0.711439 16.7652 0.711439 16.6712 0.711487C16.239 0.711628 15.8067 0.710989 15.3745 0.710037C14.8474 0.708891 14.3203 0.708903 13.7932 0.710386C13.5245 0.711112 13.2558 0.711323 12.9871 0.710105C12.7407 0.709003 12.4944 0.70943 12.248 0.711033C12.1175 0.711499 11.987 0.710375 11.8565 0.709179C11.1397 0.71654 10.5284 0.900038 10.003 1.41281C9.43824 2.03163 9.23937 2.61215 9.24188 3.45771C9.24193 3.50529 9.24197 3.55287 9.24202 3.60189C9.24224 3.7606 9.2429 3.9193 9.24355 4.078C9.24378 4.1921 9.24397 4.30619 9.24413 4.42029C9.24449 4.66568 9.24501 4.91108 9.24561 5.15648C9.24646 5.54488 9.24634 5.93329 9.24598 6.3217C9.24592 6.38732 9.24586 6.45295 9.2458 6.52056C9.24561 6.72262 9.24541 6.92469 9.2452 7.12675C9.24438 7.9628 9.24425 8.79883 9.24704 9.63487C9.24906 10.2451 9.24927 10.8552 9.24737 11.4654C9.24644 11.7881 9.24642 12.1106 9.24862 12.4333C9.25067 12.7369 9.25031 13.0405 9.24814 13.3441C9.24776 13.4552 9.24826 13.5663 9.24972 13.6774C9.25726 14.2935 9.22575 14.7272 8.79327 15.2038C8.67055 15.3065 8.67055 15.3065 8.5421 15.3065C8.5391 13.7299 8.53683 12.1532 8.53545 10.5766C8.53478 9.84454 8.53388 9.11244 8.53241 8.38033C8.53113 7.74197 8.5303 7.10362 8.53002 6.46525C8.52985 6.12748 8.52946 5.78972 8.52852 5.45195C8.52764 5.13349 8.52738 4.81503 8.52757 4.49657C8.52754 4.38021 8.52729 4.26385 8.52679 4.14749C8.52165 2.87905 8.62238 1.79062 9.5366 0.830019C10.2873 0.166685 11.0693 0.00465201 12.0362 0.00930875Z" fill="white"/>
<path d="M36.1593 9.69385C36.1638 11.3153 36.1672 12.9367 36.1693 14.5581C36.1703 15.311 36.1716 16.0638 36.1738 16.8167C36.1758 17.4731 36.177 18.1295 36.1774 18.7859C36.1777 19.1333 36.1783 19.4807 36.1797 19.828C36.181 20.1554 36.1814 20.4827 36.1811 20.8101C36.1812 20.9299 36.1815 21.0497 36.1823 21.1694C36.189 22.3037 36.0258 23.2411 35.2295 24.0958C34.6244 24.6631 33.9009 24.9733 33.0784 24.9743C33.0011 24.9745 32.9237 24.9748 32.844 24.975C32.7169 24.975 32.7169 24.975 32.5872 24.9749C32.4961 24.975 32.4049 24.9752 32.3138 24.9755C32.0634 24.976 31.813 24.9761 31.5625 24.9761C31.2924 24.9763 31.0224 24.9768 30.7523 24.9772C30.1616 24.9781 29.5709 24.9785 28.9803 24.9788C28.6114 24.9789 28.2424 24.9792 27.8735 24.9795C26.8518 24.9803 25.83 24.981 24.8082 24.9812C24.7429 24.9812 24.6775 24.9812 24.6101 24.9812C24.5445 24.9813 24.479 24.9813 24.4115 24.9813C24.2786 24.9813 24.1458 24.9813 24.013 24.9814C23.9142 24.9814 23.9142 24.9814 23.8134 24.9814C22.7463 24.9817 21.6793 24.9828 20.6123 24.9843C19.5163 24.9859 18.4204 24.9867 17.3245 24.9868C16.7094 24.9868 16.0942 24.9872 15.4791 24.9884C14.9551 24.9894 14.4312 24.9897 13.9073 24.9892C13.6401 24.9889 13.373 24.989 13.1059 24.9899C12.8609 24.9908 12.6159 24.9907 12.371 24.9899C12.2412 24.9897 12.1115 24.9905 11.9818 24.9913C11.0333 24.9861 10.1305 24.7524 9.44126 24.052C8.59843 23.0196 8.51471 21.9582 8.50418 20.6617C8.50269 20.5336 8.50004 20.4055 8.49628 20.2774C8.49081 20.0904 8.48873 19.9036 8.48741 19.7165C8.48516 19.6596 8.48291 19.6027 8.48059 19.5441C8.48231 19.2983 8.48802 19.1518 8.65567 18.9662C8.99369 18.7003 8.99369 18.7003 9.18436 18.7003C9.18474 18.7395 9.18511 18.7786 9.1855 18.8189C9.18964 19.2298 9.19507 19.6407 9.20122 20.0515C9.20334 20.2044 9.20514 20.3573 9.20661 20.5103C9.20879 20.7313 9.21215 20.9522 9.21572 21.1732C9.21613 21.2406 9.21654 21.3079 9.21696 21.3773C9.23258 22.179 9.39872 22.9303 9.9478 23.5322C10.6186 24.1629 11.306 24.2674 12.1923 24.2648C12.2834 24.265 12.3745 24.2653 12.4655 24.2656C12.7152 24.2662 12.9648 24.2661 13.2145 24.2658C13.4839 24.2657 13.7534 24.2662 14.0229 24.2667C14.5506 24.2676 15.0783 24.2677 15.6061 24.2675C16.0351 24.2674 16.4641 24.2675 16.8931 24.2678C16.9542 24.2678 17.0153 24.2679 17.0782 24.2679C17.2023 24.268 17.3263 24.2681 17.4504 24.2682C18.6139 24.2689 19.7774 24.2687 20.9409 24.2683C22.0049 24.268 23.0689 24.2687 24.1329 24.27C25.2258 24.2712 26.3186 24.2718 27.4115 24.2715C28.0249 24.2714 28.6383 24.2716 29.2517 24.2725C29.774 24.2733 30.2963 24.2734 30.8185 24.2726C31.0849 24.2722 31.3512 24.2721 31.6176 24.2729C31.8617 24.2736 32.1057 24.2734 32.3498 24.2725C32.4794 24.2722 32.609 24.2729 32.7385 24.2737C33.5452 24.2688 34.1651 24.0944 34.7591 23.525C35.2727 22.9723 35.4617 22.4303 35.4595 21.676C35.4595 21.628 35.4594 21.5799 35.4594 21.5304C35.4592 21.3697 35.4585 21.209 35.4579 21.0483C35.4576 20.9329 35.4574 20.8175 35.4573 20.7022C35.4569 20.4538 35.4564 20.2054 35.4558 19.9571C35.455 19.564 35.4551 19.171 35.4554 18.7779C35.4555 18.7115 35.4556 18.6451 35.4556 18.5767C35.4558 18.3723 35.456 18.1679 35.4562 17.9634C35.457 17.1172 35.4572 16.271 35.4544 15.4248C35.4524 14.8074 35.4521 14.1901 35.454 13.5727C35.455 13.2462 35.455 12.9197 35.4528 12.5932C35.4507 12.2859 35.4511 11.9786 35.4533 11.6712C35.4536 11.5588 35.4532 11.4464 35.4517 11.3339C35.4442 10.7146 35.4726 10.2749 35.9081 9.79607C36.0309 9.69385 36.0309 9.69385 36.1593 9.69385Z" fill="white"/>
<path d="M97.1098 7.10571C98.0636 7.10571 99.0173 7.10571 100 7.10571C100 9.88401 100 12.6623 100 15.5248C99.9576 15.5248 99.9152 15.5248 99.8715 15.5248C99.8411 15.4656 99.8106 15.4064 99.7792 15.3453C99.581 15.0325 99.2479 14.9601 98.9081 14.8722C98.6223 14.8379 98.3402 14.8373 98.0527 14.8398C97.9688 14.8394 97.8849 14.8391 97.7984 14.8387C97.5664 14.8379 97.3344 14.8386 97.1023 14.8396C96.8496 14.8404 96.5968 14.8397 96.3441 14.8391C95.9014 14.8384 95.4587 14.8386 95.016 14.8395C94.3577 14.8408 93.6994 14.8406 93.041 14.8401C91.9334 14.8392 90.8258 14.8395 89.7182 14.8405C88.2056 14.8417 86.6931 14.8413 85.1806 14.8404C84.4758 14.84 83.7711 14.8397 83.0663 14.8394C82.9605 14.8393 82.9605 14.8393 82.8525 14.8393C81.1737 14.8386 79.4948 14.8387 77.8159 14.8389C77.7058 14.8389 77.7058 14.8389 77.5934 14.839C76.476 14.8391 75.3587 14.8393 74.2413 14.8395C73.0497 14.8398 71.858 14.84 70.6663 14.8401C70.5562 14.8402 70.5562 14.8402 70.4439 14.8402C68.7678 14.8404 67.0917 14.8404 65.4156 14.8397C65.3099 14.8396 65.3099 14.8396 65.2021 14.8396C64.499 14.8393 63.7959 14.8389 63.0927 14.8385C61.5818 14.8377 60.0709 14.8375 58.56 14.8388C57.4588 14.8397 56.3576 14.8398 55.2564 14.8389C54.602 14.8384 53.9475 14.8386 53.2931 14.8399C52.8561 14.8407 52.4191 14.8405 51.9821 14.8396C51.733 14.8391 51.484 14.839 51.2349 14.8401C50.9666 14.8413 50.6983 14.8404 50.4299 14.8393C50.3527 14.84 50.2754 14.8406 50.1958 14.8413C49.6991 14.8371 49.1937 14.7917 48.8178 14.427C48.5571 14.1147 48.4567 13.7625 48.3622 13.3711C48.3391 13.4359 48.3159 13.5008 48.292 13.5676C48.028 14.2043 48.028 14.2043 47.7299 14.3379C47.3743 14.4186 47.0096 14.3942 46.6479 14.3814C46.5302 14.3807 46.4125 14.3804 46.2948 14.3805C45.9858 14.3797 45.6771 14.3737 45.3682 14.3664C44.933 14.357 44.4978 14.3547 44.0625 14.3518C43.831 14.3502 43.5996 14.3466 43.3682 14.3414C43.2621 14.3397 43.156 14.338 43.0499 14.3363C42.9787 14.334 42.9787 14.334 42.9062 14.3317C42.5737 14.328 42.3569 14.3907 42.0681 14.5458C41.9729 14.6787 41.9729 14.6787 41.9396 14.8069C41.8972 14.8069 41.8548 14.8069 41.8112 14.8069C41.8067 14.2344 41.8033 13.6619 41.8012 13.0894C41.8002 12.8235 41.7988 12.5576 41.7966 12.2917C41.7945 12.0344 41.7934 11.7771 41.7929 11.5198C41.7925 11.4223 41.7918 11.3248 41.7908 11.2274C41.7793 10.1191 41.9593 9.12983 42.7211 8.29194C43.5167 7.46659 44.3735 7.15112 45.4944 7.13846C45.6111 7.13804 45.7277 7.13799 45.8444 7.13828C46.0219 7.13835 46.1992 7.13562 46.3766 7.13274C47.4774 7.12547 47.4774 7.12547 47.9769 7.4973C47.8921 7.38961 47.8073 7.28193 47.72 7.17098C48.5889 7.17098 49.4579 7.17098 50.3532 7.17098C50.3532 8.95857 50.3532 10.7462 50.3532 12.5879C55.2068 12.5879 60.0604 12.5879 65.061 12.5879C65.1848 9.87887 65.1848 9.87887 64.6756 7.43203C64.5148 7.3525 64.5148 7.3525 64.3545 7.30151C64.3333 7.25843 64.3121 7.21536 64.2903 7.17098C65.244 7.17098 66.1978 7.17098 67.1805 7.17098C67.1805 8.95857 67.1805 10.7462 67.1805 12.5879C72.0128 12.5879 76.8452 12.5879 81.824 12.5879C81.9579 10.0153 81.9579 10.0153 81.5029 7.56256C81.307 7.36557 81.307 7.36557 81.1175 7.23624C81.1175 7.2147 81.1175 7.19317 81.1175 7.17098C82.0713 7.17098 83.025 7.17098 84.0077 7.17098C84.0077 8.95857 84.0077 10.7462 84.0077 12.5879C88.5645 12.5879 93.1214 12.5879 97.8163 12.5879C97.9542 9.98189 97.9542 9.98189 97.4952 7.4973C97.2984 7.33472 97.2984 7.33472 97.1098 7.23624C97.1098 7.19317 97.1098 7.15009 97.1098 7.10571ZM48.0411 7.56256C48.1053 7.69309 48.1053 7.69309 48.1053 7.69309L48.0411 7.56256ZM44.262 9.59442C44.2271 9.65878 44.2271 9.65878 44.1915 9.72444C44.1549 9.78931 44.1549 9.78931 44.1175 9.85548C43.9854 10.131 43.9865 10.3784 43.9886 10.6777C43.9886 10.7211 43.9887 10.7645 43.9888 10.8092C43.9891 10.9711 43.99 11.133 43.9908 11.2949C43.9922 11.657 43.9935 12.0191 43.9948 12.3921C45.0546 12.3921 46.1143 12.3921 47.2062 12.3921C47.2062 11.3153 47.2062 10.2384 47.2062 9.12891C46.8352 9.12218 46.4643 9.11545 46.0822 9.10851C45.9662 9.10554 45.8501 9.10257 45.7306 9.09951C45.1201 9.09028 44.6834 9.09803 44.262 9.59442Z" fill="white"/>
<path d="M67.6864 15.7474C67.8961 15.9723 68.0133 16.1883 68.0306 16.5C67.996 16.8039 67.8616 17.0608 67.6403 17.2656C67.3971 17.4171 67.1399 17.4245 66.8593 17.4173C66.5524 17.3133 66.3996 17.1632 66.217 16.8952C66.1142 16.6862 66.1298 16.4698 66.1528 16.2425C66.2626 15.9372 66.3975 15.7657 66.6666 15.5899C66.9992 15.4584 67.4032 15.5309 67.6864 15.7474Z" fill="white"/>
<path d="M99.165 4.16875C99.378 4.30581 99.5651 4.45959 99.6789 4.69086C99.7046 5.00281 99.7145 5.30242 99.6146 5.60048C99.3907 5.83514 99.1487 5.98071 98.8238 6.00915C98.4555 5.98702 98.2616 5.8738 98.009 5.60456C97.8458 5.32829 97.8364 5.07091 97.8805 4.75613C98.1656 4.19748 98.5713 4.00294 99.165 4.16875Z" fill="white"/>
<path d="M83.3012 15.6552C83.4978 15.8257 83.6727 16.0396 83.6996 16.3071C83.7079 16.7237 83.6437 16.9298 83.3574 17.2379C83.1048 17.3941 82.8895 17.4383 82.5947 17.4174C82.3327 17.3389 82.1422 17.2205 81.9525 17.0217C81.8499 16.7154 81.8335 16.431 81.8882 16.1121C82.0284 15.8276 82.2062 15.6875 82.4863 15.5532C82.7838 15.5174 83.0247 15.5331 83.3012 15.6552Z" fill="white"/>
<path d="M65.8097 15.7469C66.0563 16.0449 66.1078 16.2411 66.1024 16.618C66.0762 16.8971 65.9428 17.0408 65.7595 17.238C65.509 17.393 65.2887 17.4311 64.9968 17.4175C64.7248 17.3184 64.5407 17.1848 64.3545 16.9606C64.2675 16.6952 64.2562 16.4551 64.2903 16.1775C64.4483 15.8679 64.6206 15.6594 64.9446 15.5371C65.2493 15.5164 65.5688 15.5397 65.8097 15.7469Z" fill="white"/>
<path d="M93.5131 19.2449C94.4456 19.2449 95.3782 19.2449 96.339 19.2449C96.339 19.3526 96.339 19.4602 96.339 19.5712C96.1059 19.5712 95.8727 19.5712 95.6325 19.5712C95.6325 20.325 95.6325 21.0788 95.6325 21.8554C96.3743 21.8554 97.1161 21.8554 97.8804 21.8554C97.8804 21.1016 97.8804 20.3478 97.8804 19.5712C97.6473 19.5712 97.4142 19.5712 97.1739 19.5712C97.1739 19.4635 97.1739 19.3558 97.1739 19.2449C98.1065 19.2449 99.0391 19.2449 99.9999 19.2449C99.9999 19.3526 99.9999 19.4602 99.9999 19.5712C99.7668 19.5712 99.5336 19.5712 99.2934 19.5712C99.2934 21.2511 99.2934 22.931 99.2934 24.6618C99.4842 24.6618 99.6749 24.6618 99.8714 24.6618C99.9999 24.7923 99.9999 24.7923 99.9999 24.9881C99.0673 24.9881 98.1348 24.9881 97.1739 24.9881C97.1739 24.8804 97.1739 24.7728 97.1739 24.6618C97.4071 24.6618 97.6402 24.6618 97.8804 24.6618C97.8804 23.8434 97.8804 23.025 97.8804 22.1818C97.1386 22.1818 96.3968 22.1818 95.6325 22.1818C95.6325 23.0002 95.6325 23.8186 95.6325 24.6618C95.8233 24.6618 96.014 24.6618 96.2106 24.6618C96.339 24.7923 96.339 24.7923 96.339 24.9881C95.4064 24.9881 94.4739 24.9881 93.5131 24.9881C93.5131 24.8804 93.5131 24.7728 93.5131 24.6618C93.7462 24.6618 93.9793 24.6618 94.2195 24.6618C94.2195 22.9819 94.2195 21.302 94.2195 19.5712C93.9864 19.5712 93.7533 19.5712 93.5131 19.5712C93.5131 19.4635 93.5131 19.3558 93.5131 19.2449Z" fill="white"/>
<path d="M69.3641 19.2447C69.8376 19.2386 70.3111 19.234 70.7846 19.2311C71.0046 19.2298 71.2245 19.228 71.4444 19.225C71.6981 19.2216 71.9517 19.2203 72.2054 19.2192C72.2832 19.2178 72.3611 19.2165 72.4413 19.2151C72.9782 19.2149 73.5235 19.2599 73.9413 19.6372C74.2001 19.9182 74.2966 20.1182 74.3256 20.501C74.3021 20.8586 74.2436 21.1335 73.9942 21.3979C73.8667 21.5112 73.7362 21.6184 73.6031 21.7247C73.5395 21.7893 73.5395 21.7893 73.4746 21.8552C73.5111 21.8648 73.5476 21.8744 73.5852 21.8843C74.0553 22.023 74.3662 22.2196 74.6267 22.6466C74.7838 23.1014 74.7584 23.5965 74.5664 24.0334C74.3172 24.4779 73.9499 24.7164 73.4844 24.8872C73.0192 25.0065 72.5569 24.9964 72.0799 24.9943C72.0022 24.9942 71.9244 24.9941 71.8443 24.994C71.5969 24.9937 71.3496 24.9928 71.1023 24.992C70.9341 24.9917 70.766 24.9914 70.5979 24.9911C70.1866 24.9904 69.7754 24.9893 69.3641 24.9879C69.3641 24.8802 69.3641 24.7726 69.3641 24.6616C69.5973 24.6616 69.8304 24.6616 70.0706 24.6616C70.0706 22.9817 70.0706 21.3018 70.0706 19.571C69.8375 19.571 69.6043 19.571 69.3641 19.571C69.3641 19.4633 69.3641 19.3556 69.3641 19.2447ZM71.4194 19.571C71.4194 20.2817 71.4194 20.9924 71.4194 21.7247C72.077 21.7424 72.077 21.7424 72.6276 21.4514C72.8639 21.1427 72.9112 20.8636 72.8885 20.4806C72.8506 20.1853 72.7721 19.9944 72.5754 19.7668C72.1974 19.4982 72.1974 19.4982 71.4194 19.571ZM71.4194 22.051C71.4194 22.9125 71.4194 23.774 71.4194 24.6616C72.2819 24.7027 72.2819 24.7027 72.9528 24.2863C73.2293 23.8566 73.276 23.4024 73.2177 22.8995C73.1175 22.5847 72.9592 22.3255 72.7039 22.1163C72.2972 21.9785 71.8481 22.051 71.4194 22.051Z" fill="white"/>
<path d="M41.8112 19.2448C43.3597 19.1093 43.3597 19.1093 43.7289 19.3939C43.9147 19.583 44.0488 19.8019 44.1875 20.0279C44.2849 20.1516 44.3839 20.2741 44.4846 20.395C44.5311 20.4538 44.5776 20.5125 44.6256 20.573C44.7641 20.7441 44.9077 20.9085 45.0546 21.0722C45.3571 21.4098 45.6381 21.7621 45.9216 22.1164C46.1548 22.3964 46.3879 22.6764 46.6281 22.9648C46.6493 21.8449 46.6705 20.725 46.6923 19.5711C46.438 19.5711 46.1837 19.5711 45.9216 19.5711C45.9216 19.4634 45.9216 19.3557 45.9216 19.2448C46.5787 19.2448 47.2357 19.2448 47.9126 19.2448C47.9126 19.3525 47.9126 19.4601 47.9126 19.5711C47.6583 19.5711 47.404 19.5711 47.1419 19.5711C47.1419 21.3371 47.1419 23.1032 47.1419 24.9228C46.9088 25.0017 46.7446 25.013 46.4997 24.988C46.3356 24.8562 46.3356 24.8562 46.1866 24.6739C46.1045 24.5755 46.1045 24.5755 46.0207 24.4751C45.9662 24.4069 45.9117 24.3386 45.8574 24.2701C45.8081 24.2092 45.7589 24.1483 45.7081 24.0855C45.6122 23.9665 45.5167 23.8471 45.4216 23.7274C45.2822 23.5557 45.1379 23.3904 44.9903 23.2259C44.7388 22.9454 44.503 22.6546 44.2683 22.3596C44.0845 22.1341 43.8914 21.9184 43.6953 21.7039C43.4849 21.4587 43.2922 21.1984 43.0957 20.9416C43.0745 22.1693 43.0533 23.3969 43.0315 24.6617C43.2434 24.6617 43.4553 24.6617 43.6737 24.6617C43.8022 24.7922 43.8022 24.7922 43.8022 24.988C43.1451 24.988 42.4881 24.988 41.8112 24.988C41.8112 24.8803 41.8112 24.7727 41.8112 24.6617C42.0655 24.6617 42.3198 24.6617 42.5819 24.6617C42.5819 22.9818 42.5819 21.3019 42.5819 19.5711C42.3275 19.5711 42.0732 19.5711 41.8112 19.5711C41.8112 19.4634 41.8112 19.3557 41.8112 19.2448Z" fill="white"/>
<path d="M58.2993 19.2383C58.498 19.2404 58.6966 19.2425 58.8952 19.2447C59.1773 19.8461 59.4303 20.4556 59.6738 21.0738C59.7779 21.3382 59.8827 21.6022 59.9875 21.8662C60.0087 21.9196 60.03 21.973 60.0518 22.028C60.196 22.3901 60.343 22.7509 60.4923 23.1108C60.5216 23.1815 60.5216 23.1815 60.5515 23.2536C60.6443 23.4768 60.7374 23.6999 60.8309 23.9227C60.8636 24.0013 60.8964 24.0798 60.9301 24.1606C60.959 24.2293 60.9878 24.2981 61.0175 24.3688C61.0789 24.5311 61.0789 24.5311 61.0789 24.6616C61.2272 24.6616 61.3756 24.6616 61.5285 24.6616C61.5497 24.7693 61.5709 24.877 61.5927 24.9879C60.7449 24.9879 59.8971 24.9879 59.0236 24.9879C59.0236 24.8802 59.0236 24.7725 59.0236 24.6616C59.3098 24.6293 59.3098 24.6293 59.6017 24.5963C59.5842 24.5519 59.5667 24.5074 59.5486 24.4616C59.4696 24.2606 59.3911 24.0593 59.3127 23.858C59.2851 23.7881 59.2575 23.7181 59.2291 23.646C59.203 23.579 59.177 23.5119 59.1501 23.4427C59.1259 23.3809 59.1017 23.319 59.0767 23.2553C59.0236 23.0952 59.0236 23.0952 59.0236 22.8995C58.409 22.8995 57.7944 22.8995 57.1611 22.8995C57.1399 23.0287 57.1187 23.1579 57.0969 23.291C57.0605 23.4048 57.0209 23.5176 56.9782 23.6291C56.9552 23.6897 56.9322 23.7502 56.9086 23.8126C56.8846 23.8747 56.8606 23.9368 56.8359 24.0008C56.8117 24.0644 56.7875 24.128 56.7626 24.1935C56.7031 24.3497 56.6431 24.5057 56.5831 24.6616C56.795 24.6616 57.0069 24.6616 57.2253 24.6616C57.2465 24.7693 57.2677 24.877 57.2895 24.9879C56.6961 24.9879 56.1026 24.9879 55.4912 24.9879C55.4912 24.8802 55.4912 24.7725 55.4912 24.6616C55.7773 24.6293 55.7773 24.6293 56.0692 24.5963C56.2326 24.1681 56.3959 23.7398 56.559 23.3114C56.5834 23.2473 56.6078 23.1832 56.633 23.1171C56.9015 22.4119 57.169 21.7062 57.4315 20.9986C57.4524 20.9424 57.4733 20.8862 57.4947 20.8284C57.5935 20.5619 57.692 20.2954 57.7902 20.0288C57.8254 19.9337 57.8605 19.8386 57.8957 19.7436C57.9115 19.7002 57.9274 19.6568 57.9438 19.6121C58.0793 19.2463 58.0793 19.2463 58.2993 19.2383ZM58.0603 20.5499C57.9785 20.7566 57.897 20.9633 57.8154 21.17C57.7925 21.2278 57.7696 21.2857 57.746 21.3453C57.6791 21.5151 57.6126 21.6851 57.5464 21.8552C57.5168 21.9307 57.5168 21.9307 57.4866 22.0077C57.4109 22.2054 57.3538 22.359 57.3538 22.5731C57.8412 22.5731 58.3287 22.5731 58.831 22.5731C58.7787 22.3077 58.7156 22.0935 58.62 21.8438C58.5912 21.7682 58.5624 21.6927 58.5328 21.6149C58.5027 21.5367 58.4726 21.4586 58.4416 21.378C58.4113 21.2985 58.3809 21.2191 58.3496 21.1372C58.2748 20.9413 58.1998 20.7456 58.1245 20.5499C58.1033 20.5499 58.0821 20.5499 58.0603 20.5499Z" fill="white"/>
<path d="M82.7231 19.2449C83.6557 19.2449 84.5883 19.2449 85.5491 19.2449C85.5491 19.3526 85.5491 19.4602 85.5491 19.5712C85.2948 19.5712 85.0404 19.5712 84.7784 19.5712C84.7784 21.2511 84.7784 22.931 84.7784 24.6618C84.9903 24.6618 85.2023 24.6618 85.4206 24.6618C85.5491 24.7923 85.5491 24.7923 85.5491 24.9881C84.6165 24.9881 83.684 24.9881 82.7231 24.9881C82.7231 24.8804 82.7231 24.7728 82.7231 24.6618C82.9563 24.6618 83.1894 24.6618 83.4296 24.6618C83.4296 22.9819 83.4296 21.302 83.4296 19.5712C83.1965 19.5712 82.9634 19.5712 82.7231 19.5712C82.7231 19.4635 82.7231 19.3558 82.7231 19.2449Z" fill="white"/>
</svg>
