<svg width="100" height="25" viewBox="0 0 100 25" fill="none" xmlns="http://www.w3.org/2000/svg">
<path d="M18.4971 2.97151C18.6262 3.09099 18.7479 3.21365 18.8664 3.34397C18.9826 3.46431 19.0985 3.57025 19.2248 3.67876C19.58 3.99341 19.9095 4.33417 20.2413 4.67375C20.3601 4.79525 20.479 4.91653 20.598 5.03776C20.8933 5.33871 21.1883 5.64002 21.4832 5.94132C21.7332 6.19665 21.9834 6.45184 22.2337 6.70685C22.35 6.82554 22.4662 6.94442 22.5824 7.06331C22.9029 7.39042 23.2244 7.7116 23.5702 8.01135C23.8629 8.27419 24.1361 8.55888 24.4127 8.83892C24.4458 8.87241 24.479 8.9059 24.5131 8.94041C24.6881 9.1173 24.863 9.29437 25.0377 9.4716C25.2169 9.65336 25.3967 9.8345 25.5767 10.0155C25.7162 10.1561 25.8554 10.2972 25.9944 10.4383C26.0605 10.5053 26.1267 10.5721 26.1931 10.6387C26.7428 11.1906 27.2377 11.7172 27.2563 12.5463C27.2528 13.7495 26.6055 14.3186 25.812 15.1211C25.686 15.2483 25.5598 15.3753 25.4335 15.5023C25.2647 15.672 25.0962 15.842 24.9277 16.0121C24.8891 16.0508 24.8506 16.0895 24.8108 16.1293C24.5339 16.4086 24.5339 16.4086 24.438 16.7831C24.4466 17.1607 24.6698 17.3351 24.9197 17.5907C24.9882 17.6668 25.0563 17.7432 25.1242 17.8199C25.1978 17.9026 25.2715 17.9853 25.3452 18.068C25.3805 18.1078 25.4159 18.1477 25.4523 18.1888C25.693 18.4544 25.903 18.6746 26.2685 18.7288C26.5266 18.6905 26.5984 18.6313 26.7823 18.4392C26.908 18.1939 27.0043 17.9378 27.1034 17.6805C27.8561 15.8074 28.8076 14.0605 29.9936 12.4348C30.021 12.397 30.0485 12.3593 30.0767 12.3203C31.1277 10.8813 32.3501 9.43533 33.7415 8.32879C33.8979 8.20348 34.0484 8.07301 34.1985 7.9401C35.4197 6.86398 36.8054 5.98749 38.2145 5.19049C38.2661 5.16123 38.3177 5.13196 38.3709 5.10181C39.6815 4.36521 41.0505 3.77922 42.4695 3.29783C42.5344 3.27573 42.5344 3.27573 42.6005 3.25318C43.0769 3.09195 43.5561 2.94519 44.042 2.8165C44.1065 2.79888 44.1065 2.79888 44.1722 2.78091C44.3896 2.72538 44.5529 2.69161 44.7656 2.77571C44.6755 2.81895 44.6755 2.81895 44.5837 2.86306C42.8956 3.67575 41.2763 4.5356 39.7559 5.64734C39.7109 5.68013 39.6659 5.71292 39.6196 5.74671C38.2733 6.7339 36.9794 7.88549 35.9024 9.17162C35.8518 9.23026 35.8012 9.28889 35.7491 9.34931C33.3855 12.1082 31.7391 15.5192 30.884 19.0617C30.6034 20.2239 30.0662 21.1406 29.0467 21.7857C28.329 22.1714 27.4234 22.4375 26.6097 22.2408C25.9392 21.9423 25.3664 21.1862 24.8539 20.6614C24.7427 20.5476 24.6313 20.434 24.5198 20.3204C24.2836 20.0796 24.0477 19.8386 23.8118 19.5976C23.5371 19.3169 23.2622 19.0363 22.9871 18.7559C22.8783 18.6449 22.7696 18.5337 22.661 18.4224C22.3539 18.1089 22.0446 17.8029 21.7136 17.5153C21.4053 17.2376 21.1166 16.9378 20.8246 16.6429C20.7893 16.6073 20.754 16.5717 20.7177 16.5351C20.5314 16.3471 20.3453 16.159 20.1594 15.9706C19.9686 15.7775 19.7771 15.5852 19.5854 15.393C19.4368 15.2437 19.2888 15.0938 19.1409 14.9438C19.0706 14.8726 19.0001 14.8017 18.9293 14.731C18.3143 14.116 17.9074 13.6152 17.899 12.7163C17.8974 11.9045 18.2528 11.3774 18.7986 10.8094C18.8855 10.7215 18.9728 10.634 19.0603 10.5468C19.1067 10.5 19.153 10.4532 19.2008 10.4051C19.3473 10.2574 19.4942 10.1101 19.6411 9.96295C19.7892 9.8143 19.9372 9.66556 20.0849 9.51663C20.1765 9.42435 20.2683 9.33224 20.3603 9.24033C20.4014 9.1989 20.4426 9.15748 20.4851 9.1148C20.5214 9.0784 20.5578 9.04201 20.5952 9.00451C20.7257 8.86123 20.7462 8.77236 20.7771 8.57608C20.7436 8.3121 20.725 8.27311 20.5589 8.08838C20.518 8.04293 20.4772 7.99748 20.4351 7.95065C20.1755 7.67261 19.9118 7.39915 19.6452 7.12803C19.5886 7.06977 19.5321 7.01151 19.4738 6.95148C19.4189 6.89558 19.364 6.83967 19.3075 6.78208C19.2582 6.73174 19.2089 6.68141 19.1582 6.62954C18.935 6.42679 18.7633 6.31066 18.465 6.26736C18.1758 6.30934 18.1075 6.40402 17.9191 6.62631C17.8139 6.81963 17.8139 6.81963 17.7322 7.0337C17.7162 7.07263 17.7002 7.11156 17.6838 7.15166C17.6496 7.23495 17.6157 7.31837 17.5821 7.4019C17.4926 7.62376 17.4 7.84426 17.3072 8.06467C17.2885 8.10899 17.2698 8.15331 17.2506 8.19897C16.4546 10.072 15.3402 11.8406 14.0655 13.4138C14.0366 13.4496 14.0076 13.4854 13.9778 13.5223C13.3831 14.2539 12.7533 14.9481 12.0946 15.6205C12.0496 15.6666 12.0046 15.7126 11.9582 15.7601C11.6649 16.0572 11.3623 16.339 11.0469 16.6118C10.9855 16.665 10.9855 16.665 10.9228 16.7194C7.87056 19.3477 3.97754 21.5843 0 22.2897C0 22.2467 0 22.2036 0 22.1592C0.0691024 22.1278 0.0691024 22.1278 0.139601 22.0958C2.63574 20.9563 4.95113 19.5431 6.97982 17.6629C7.11064 17.5424 7.24359 17.4255 7.37797 17.3093C7.60463 17.1084 7.81915 16.8966 8.03227 16.6811C8.06327 16.6499 8.09426 16.6187 8.1262 16.5866C11.0279 13.6255 12.7431 9.84762 13.853 5.88042C14.1789 4.72543 14.6775 3.7834 15.7354 3.1673C16.5247 2.77257 17.718 2.35436 18.4971 2.97151ZM15.6712 5.84314C15.6385 5.9245 15.6065 6.00613 15.5748 6.08788C15.5569 6.13331 15.5391 6.17874 15.5206 6.22555C15.4659 6.3825 15.4659 6.3825 15.4785 6.62631C15.5633 6.62631 15.648 6.62631 15.7354 6.62631C15.799 6.3894 15.8626 6.15249 15.9281 5.9084C15.8433 5.88686 15.7585 5.86533 15.6712 5.84314ZM14.772 8.45371C14.6644 8.68866 14.5575 8.92398 14.4509 9.15938C14.4202 9.22622 14.3896 9.29306 14.358 9.36193C14.3291 9.42608 14.3001 9.49023 14.2702 9.55632C14.2433 9.61545 14.2164 9.67458 14.1887 9.73549C14.1181 9.89239 14.1181 9.89239 14.1297 10.0853C14.3313 10.0405 14.3313 10.0405 14.4091 9.87485C14.4377 9.8123 14.4663 9.74976 14.4958 9.68532C14.5427 9.58405 14.5427 9.58405 14.5905 9.48073C14.6386 9.37416 14.6386 9.37416 14.6877 9.26544C14.7205 9.19414 14.7534 9.12284 14.7872 9.04937C14.8683 8.87285 14.9489 8.69605 15.0289 8.51897C14.9441 8.49744 14.8593 8.4759 14.772 8.45371ZM34.2325 9.36741C34.0629 9.53971 33.8934 9.71201 33.7187 9.88952C33.7399 9.9326 33.7611 9.97567 33.7829 10.0201C33.9525 9.84776 34.122 9.67546 34.2967 9.49794C34.2755 9.45486 34.2543 9.41179 34.2325 9.36741ZM33.6545 10.0201C33.5909 10.0847 33.5273 10.1493 33.4618 10.2158C33.483 10.2589 33.5042 10.302 33.526 10.3464C33.5896 10.2818 33.6532 10.2172 33.7187 10.1506C33.6975 10.1075 33.6763 10.0644 33.6545 10.0201ZM21.0662 11.2601C21.0227 11.3035 20.9792 11.3469 20.9344 11.3916C20.5819 11.769 20.3559 12.2017 20.3276 12.7285C20.3703 13.3676 20.6508 13.7444 21.0822 14.1888C21.1228 14.2308 21.1634 14.2727 21.2052 14.3159C21.6046 14.7097 22.008 14.9531 22.5709 14.9855C23.2181 14.9645 23.5775 14.6472 24.0206 14.197C24.0686 14.1536 24.1166 14.1101 24.1661 14.0654C24.5802 13.682 24.7954 13.2659 24.8234 12.6918C24.7945 12.0872 24.4859 11.6805 24.0848 11.2601C24.0474 11.2189 24.0101 11.1776 23.9716 11.1352C23.631 10.7696 23.2745 10.5053 22.7671 10.4636C21.9834 10.45 21.6172 10.7011 21.0662 11.2601ZM13.1021 11.7822C12.9905 11.9114 12.9905 11.9114 12.8866 12.082C12.8467 12.1438 12.8067 12.2057 12.7656 12.2694C12.7243 12.3347 12.683 12.4001 12.6405 12.4675C12.5985 12.5328 12.5565 12.5982 12.5132 12.6656C12.4092 12.8276 12.3058 12.99 12.203 13.1527C12.2453 13.1958 12.2877 13.2389 12.3314 13.2833C12.4563 13.1068 12.5806 12.93 12.7047 12.753C12.7399 12.7034 12.775 12.6537 12.8112 12.6026C12.9971 12.337 13.1618 12.079 13.2948 11.7822C13.2312 11.7822 13.1676 11.7822 13.1021 11.7822ZM32.1773 11.8475C32.0683 11.9853 31.9675 12.1228 31.8682 12.2676C31.825 12.3297 31.825 12.3297 31.781 12.3931C31.5703 12.7002 31.3795 13.0137 31.2139 13.3485C31.2775 13.3485 31.341 13.3485 31.4066 13.3485C31.5094 13.2074 31.599 13.0702 31.6875 12.9202C31.7387 12.8361 31.79 12.7521 31.8413 12.6681C31.8659 12.6277 31.8904 12.5872 31.9158 12.5456C31.9988 12.4119 32.0884 12.2843 32.1813 12.1575C32.318 11.9968 32.318 11.9968 32.3057 11.8475C32.2633 11.8475 32.2209 11.8475 32.1773 11.8475ZM10.8141 14.9475C10.7637 15.0014 10.7134 15.0552 10.6615 15.1107C10.6827 15.1537 10.7039 15.1968 10.7258 15.2412C10.8529 15.0904 10.9801 14.9397 11.1111 14.7843C10.9594 14.7693 10.9594 14.7693 10.8141 14.9475ZM30.1863 15.0454C30.0784 15.268 29.9717 15.4911 29.8651 15.7144C29.8345 15.7775 29.8039 15.8407 29.7723 15.9058C29.7433 15.9668 29.7143 16.0278 29.6845 16.0907C29.6576 16.1467 29.6307 16.2028 29.603 16.2605C29.5286 16.4288 29.5286 16.4288 29.544 16.677C29.6076 16.677 29.6712 16.677 29.7367 16.677C29.8443 16.4421 29.9511 16.2067 30.0578 15.9713C30.0884 15.9045 30.1191 15.8377 30.1506 15.7688C30.1796 15.7046 30.2086 15.6405 30.2384 15.5744C30.2653 15.5153 30.2923 15.4561 30.32 15.3952C30.3906 15.2383 30.3906 15.2383 30.3789 15.0454C30.3153 15.0454 30.2518 15.0454 30.1863 15.0454ZM10.5973 15.2412C10.3854 15.4566 10.1734 15.6719 9.95504 15.8938C9.97624 15.9369 9.99743 15.98 10.0193 16.0244C10.2312 15.809 10.4432 15.5936 10.6615 15.3717C10.6403 15.3287 10.6191 15.2856 10.5973 15.2412ZM28.7733 18.5044C28.6779 18.8598 28.6779 18.8598 28.5806 19.2223C28.6654 19.2439 28.7502 19.2654 28.8375 19.2876C28.87 19.1939 28.902 19.1 28.9338 19.0061C28.9517 18.9539 28.9696 18.9016 28.988 18.8478C29.0391 18.6945 29.0391 18.6945 29.0302 18.5044C28.9454 18.5044 28.8606 18.5044 28.7733 18.5044Z" fill="#7F5EA3"/>
<path d="M23.1432 11.1194C23.2778 11.1995 23.3895 11.2861 23.5067 11.3906C23.5524 11.4308 23.5981 11.471 23.6452 11.5125C23.9652 11.8153 24.1847 12.0863 24.2308 12.5439C24.247 13.0145 24.1696 13.3008 23.863 13.6675C23.7741 13.7579 23.7741 13.7579 23.6833 13.8503C23.6247 13.9111 23.5661 13.9719 23.5057 14.0346C23.1797 14.3108 22.8573 14.4346 22.4307 14.4142C21.847 14.3275 21.4304 13.8531 21.0661 13.4138C20.8797 13.0464 20.8705 12.6247 20.9751 12.2276C21.1735 11.7681 21.5609 11.4214 21.9492 11.1255C22.3339 11.0127 22.7613 10.9794 23.1432 11.1194Z" fill="#7F5EA3"/>
<path d="M12.0362 0.00930875C12.1288 0.009036 12.2215 0.00867831 12.3142 0.00824364C12.5674 0.00730393 12.8207 0.00757616 13.0739 0.00805874C13.3476 0.00836831 13.6213 0.00755043 13.8949 0.00688284C14.4306 0.00576218 14.9662 0.00570603 15.5018 0.0060483C15.9373 0.00631239 16.3729 0.0062175 16.8084 0.00586894C16.9015 0.00579567 16.9015 0.00579567 16.9965 0.00572092C17.1225 0.00562097 17.2486 0.00552057 17.3747 0.00541973C18.5564 0.00452436 19.7381 0.00487858 20.9198 0.00562761C21.9999 0.00627567 23.0799 0.0054315 24.16 0.00386977C25.2701 0.00227677 26.3801 0.00165114 27.4902 0.00208497C28.113 0.00231265 28.7358 0.00216876 29.3586 0.00102436C29.8888 6.21116e-05 30.419 2.39163e-05 30.9492 0.00115951C31.2195 0.00171392 31.4898 0.00185764 31.7601 0.000855933C32.008 -5.1429e-05 32.2558 0.000267715 32.5037 0.00152419C32.6349 0.00188335 32.766 0.000971747 32.8971 0C33.7348 0.00674266 34.4197 0.204006 35.0675 0.752518C35.113 0.789956 35.1585 0.827393 35.2055 0.865966C35.7525 1.36324 36.109 2.13634 36.174 2.87766C36.1825 3.06758 36.1872 3.25712 36.1899 3.44722C36.191 3.51654 36.192 3.58585 36.1931 3.65726C36.1948 3.80305 36.1962 3.94884 36.1972 4.09464C36.1987 4.24352 36.2014 4.39239 36.2051 4.54123C36.2106 4.75719 36.2127 4.97294 36.214 5.18896C36.2163 5.25525 36.2185 5.32155 36.2208 5.38985C36.2181 5.8403 36.2181 5.8403 36.0457 6.03996C35.7154 6.29999 35.7154 6.29999 35.5171 6.29999C35.5168 6.25743 35.5166 6.21487 35.5163 6.17102C35.5136 5.72522 35.5092 5.27946 35.5037 4.83369C35.5019 4.66766 35.5006 4.50163 35.4996 4.3356C35.4983 4.09596 35.4953 3.85638 35.492 3.61676C35.4918 3.50668 35.4918 3.50668 35.4917 3.39438C35.4777 2.61399 35.2373 1.89816 34.6821 1.34168C34.0528 0.80385 33.3983 0.713826 32.5978 0.718929C32.5055 0.718581 32.4132 0.718119 32.321 0.717555C32.0692 0.716346 31.8175 0.716749 31.5658 0.717435C31.2936 0.717893 31.0214 0.716846 30.7492 0.715999C30.2166 0.714589 29.6841 0.714594 29.1516 0.715126C28.7186 0.715538 28.2856 0.715463 27.8526 0.715043C27.7909 0.714984 27.7292 0.714925 27.6656 0.714865C27.5402 0.714744 27.4148 0.714622 27.2894 0.7145C26.1147 0.713419 24.9399 0.713986 23.7651 0.715087C22.6912 0.716046 21.6174 0.715091 20.5435 0.713209C19.4398 0.711289 18.336 0.710575 17.2322 0.711198C17.1073 0.711264 16.9824 0.711329 16.8574 0.711392C16.7652 0.711439 16.7652 0.711439 16.6712 0.711487C16.239 0.711628 15.8067 0.710989 15.3745 0.710037C14.8474 0.708891 14.3203 0.708903 13.7932 0.710386C13.5245 0.711112 13.2558 0.711323 12.9871 0.710105C12.7407 0.709003 12.4944 0.70943 12.248 0.711033C12.1175 0.711499 11.987 0.710375 11.8565 0.709179C11.1397 0.71654 10.5284 0.900038 10.003 1.41281C9.43824 2.03163 9.23937 2.61215 9.24188 3.45771C9.24193 3.50529 9.24197 3.55287 9.24202 3.60189C9.24224 3.7606 9.2429 3.9193 9.24355 4.078C9.24378 4.1921 9.24397 4.30619 9.24413 4.42029C9.24449 4.66568 9.24501 4.91108 9.24561 5.15648C9.24646 5.54488 9.24634 5.93329 9.24598 6.3217C9.24592 6.38732 9.24586 6.45295 9.2458 6.52056C9.24561 6.72262 9.24541 6.92469 9.2452 7.12675C9.24438 7.9628 9.24425 8.79883 9.24704 9.63487C9.24906 10.2451 9.24927 10.8552 9.24737 11.4654C9.24644 11.7881 9.24642 12.1106 9.24862 12.4333C9.25067 12.7369 9.25031 13.0405 9.24814 13.3441C9.24776 13.4552 9.24826 13.5663 9.24972 13.6774C9.25726 14.2935 9.22575 14.7272 8.79327 15.2038C8.67055 15.3065 8.67055 15.3065 8.5421 15.3065C8.5391 13.7299 8.53683 12.1532 8.53545 10.5766C8.53478 9.84454 8.53388 9.11244 8.53241 8.38033C8.53113 7.74197 8.5303 7.10362 8.53002 6.46525C8.52985 6.12748 8.52946 5.78972 8.52852 5.45195C8.52764 5.13349 8.52738 4.81503 8.52757 4.49657C8.52754 4.38021 8.52729 4.26385 8.52679 4.14749C8.52165 2.87905 8.62238 1.79062 9.5366 0.830019C10.2873 0.166685 11.0693 0.00465201 12.0362 0.00930875Z" fill="#AA8F85"/>
<path d="M36.1593 9.69373C36.1638 11.3151 36.1672 12.9365 36.1693 14.558C36.1703 15.3108 36.1716 16.0637 36.1738 16.8166C36.1758 17.473 36.177 18.1294 36.1774 18.7858C36.1777 19.1332 36.1783 19.4805 36.1797 19.8279C36.181 20.1553 36.1814 20.4826 36.1811 20.81C36.1812 20.9298 36.1815 21.0496 36.1823 21.1693C36.189 22.3036 36.0258 23.2409 35.2295 24.0957C34.6244 24.663 33.9009 24.9732 33.0784 24.9742C33.0011 24.9744 32.9237 24.9747 32.844 24.9749C32.7169 24.9748 32.7169 24.9748 32.5872 24.9748C32.4961 24.9749 32.4049 24.9751 32.3138 24.9753C32.0634 24.9759 31.813 24.976 31.5625 24.976C31.2924 24.9762 31.0224 24.9766 30.7523 24.9771C30.1616 24.978 29.5709 24.9784 28.9803 24.9787C28.6114 24.9788 28.2424 24.9791 27.8735 24.9794C26.8518 24.9802 25.83 24.9809 24.8082 24.9811C24.7429 24.9811 24.6775 24.9811 24.6101 24.9811C24.5445 24.9811 24.479 24.9812 24.4115 24.9812C24.2786 24.9812 24.1458 24.9812 24.013 24.9813C23.9142 24.9813 23.9142 24.9813 23.8134 24.9813C22.7463 24.9816 21.6793 24.9827 20.6123 24.9842C19.5163 24.9858 18.4204 24.9866 17.3245 24.9867C16.7094 24.9867 16.0942 24.9871 15.4791 24.9883C14.9551 24.9893 14.4312 24.9896 13.9073 24.9891C13.6401 24.9888 13.373 24.9889 13.1059 24.9898C12.8609 24.9906 12.6159 24.9906 12.371 24.9898C12.2412 24.9896 12.1115 24.9903 11.9818 24.9912C11.0333 24.986 10.1305 24.7522 9.44126 24.0519C8.59843 23.0194 8.51471 21.9581 8.50418 20.6616C8.50269 20.5335 8.50004 20.4054 8.49628 20.2773C8.49081 20.0903 8.48873 19.9035 8.48741 19.7164C8.48516 19.6595 8.48291 19.6026 8.48059 19.5439C8.48231 19.2982 8.48802 19.1517 8.65567 18.9661C8.99369 18.7002 8.99369 18.7002 9.18436 18.7002C9.18474 18.7394 9.18511 18.7785 9.1855 18.8188C9.18964 19.2297 9.19507 19.6405 9.20122 20.0514C9.20334 20.2043 9.20514 20.3572 9.20661 20.5101C9.20879 20.7312 9.21215 20.9521 9.21572 21.1731C9.21613 21.2405 9.21654 21.3078 9.21696 21.3772C9.23258 22.1789 9.39872 22.9302 9.9478 23.5321C10.6186 24.1628 11.306 24.2673 12.1923 24.2647C12.2834 24.2649 12.3745 24.2651 12.4655 24.2654C12.7152 24.2661 12.9648 24.266 13.2145 24.2657C13.4839 24.2655 13.7534 24.2661 14.0229 24.2666C14.5506 24.2674 15.0783 24.2676 15.6061 24.2674C16.0351 24.2673 16.4641 24.2674 16.8931 24.2677C16.9542 24.2677 17.0153 24.2678 17.0782 24.2678C17.2023 24.2679 17.3263 24.268 17.4504 24.268C18.6139 24.2688 19.7774 24.2686 20.9409 24.2682C22.0049 24.2679 23.0689 24.2686 24.1329 24.2698C25.2258 24.2711 26.3186 24.2717 27.4115 24.2714C28.0249 24.2713 28.6383 24.2714 29.2517 24.2724C29.774 24.2731 30.2963 24.2732 30.8185 24.2724C31.0849 24.2721 31.3512 24.272 31.6176 24.2728C31.8617 24.2735 32.1057 24.2733 32.3498 24.2724C32.4794 24.2721 32.609 24.2728 32.7385 24.2736C33.5452 24.2687 34.1651 24.0943 34.7591 23.5249C35.2727 22.9722 35.4617 22.4302 35.4595 21.6759C35.4595 21.6279 35.4594 21.5798 35.4594 21.5303C35.4592 21.3696 35.4585 21.2089 35.4579 21.0481C35.4576 20.9328 35.4574 20.8174 35.4573 20.702C35.4569 20.4537 35.4564 20.2053 35.4558 19.957C35.455 19.5639 35.4551 19.1709 35.4554 18.7778C35.4555 18.7114 35.4556 18.645 35.4556 18.5766C35.4558 18.3722 35.456 18.1677 35.4562 17.9633C35.457 17.1171 35.4572 16.2709 35.4544 15.4247C35.4524 14.8073 35.4521 14.1899 35.454 13.5726C35.455 13.246 35.455 12.9196 35.4528 12.5931C35.4507 12.2857 35.4511 11.9785 35.4533 11.6711C35.4536 11.5587 35.4532 11.4462 35.4517 11.3338C35.4442 10.7145 35.4726 10.2748 35.9081 9.79595C36.0309 9.69373 36.0309 9.69373 36.1593 9.69373Z" fill="#BEA49A"/>
<path d="M97.1098 7.10572C98.0636 7.10572 99.0173 7.10572 100 7.10572C100 9.88402 100 12.6623 100 15.5248C99.9576 15.5248 99.9152 15.5248 99.8715 15.5248C99.8411 15.4656 99.8106 15.4064 99.7792 15.3453C99.581 15.0325 99.2479 14.9601 98.9081 14.8722C98.6223 14.8379 98.3402 14.8373 98.0527 14.8398C97.9688 14.8394 97.8849 14.8391 97.7984 14.8388C97.5664 14.8379 97.3344 14.8386 97.1023 14.8396C96.8496 14.8404 96.5968 14.8397 96.3441 14.8391C95.9014 14.8384 95.4587 14.8386 95.016 14.8395C94.3577 14.8408 93.6994 14.8406 93.041 14.8401C91.9334 14.8392 90.8258 14.8395 89.7182 14.8405C88.2056 14.8417 86.6931 14.8413 85.1806 14.8404C84.4758 14.84 83.7711 14.8397 83.0663 14.8394C82.9605 14.8393 82.9605 14.8393 82.8525 14.8393C81.1737 14.8386 79.4948 14.8387 77.8159 14.8389C77.7058 14.839 77.7058 14.839 77.5934 14.839C76.476 14.8391 75.3587 14.8393 74.2413 14.8395C73.0497 14.8398 71.858 14.84 70.6663 14.8401C70.5562 14.8402 70.5562 14.8402 70.4439 14.8402C68.7678 14.8404 67.0917 14.8404 65.4156 14.8397C65.3099 14.8397 65.3099 14.8397 65.2021 14.8396C64.499 14.8393 63.7959 14.8389 63.0927 14.8385C61.5818 14.8377 60.0709 14.8375 58.56 14.8388C57.4588 14.8397 56.3576 14.8398 55.2564 14.8389C54.602 14.8384 53.9475 14.8386 53.2931 14.8399C52.8561 14.8407 52.4191 14.8405 51.9821 14.8396C51.733 14.8391 51.484 14.839 51.2349 14.8401C50.9666 14.8413 50.6983 14.8404 50.4299 14.8393C50.3527 14.84 50.2754 14.8406 50.1958 14.8413C49.6991 14.8371 49.1937 14.7917 48.8178 14.4271C48.5571 14.1147 48.4567 13.7625 48.3622 13.3711C48.3391 13.4359 48.3159 13.5008 48.292 13.5676C48.028 14.2043 48.028 14.2043 47.7299 14.3379C47.3743 14.4186 47.0096 14.3942 46.6479 14.3814C46.5302 14.3807 46.4125 14.3804 46.2948 14.3805C45.9858 14.3797 45.6771 14.3737 45.3682 14.3664C44.933 14.357 44.4978 14.3547 44.0625 14.3518C43.831 14.3502 43.5996 14.3466 43.3682 14.3414C43.2621 14.3397 43.156 14.338 43.0499 14.3363C42.9787 14.334 42.9787 14.334 42.9062 14.3317C42.5737 14.328 42.3569 14.3907 42.0681 14.5459C41.9729 14.6787 41.9729 14.6787 41.9396 14.8069C41.8972 14.8069 41.8548 14.8069 41.8112 14.8069C41.8067 14.2344 41.8033 13.6619 41.8012 13.0894C41.8002 12.8235 41.7988 12.5576 41.7966 12.2917C41.7945 12.0344 41.7934 11.7771 41.7929 11.5198C41.7925 11.4223 41.7918 11.3248 41.7908 11.2274C41.7793 10.1191 41.9593 9.12984 42.7211 8.29195C43.5167 7.4666 44.3735 7.15112 45.4944 7.13847C45.6111 7.13805 45.7277 7.13799 45.8444 7.13829C46.0219 7.13835 46.1992 7.13562 46.3766 7.13274C47.4774 7.12548 47.4774 7.12548 47.9769 7.49731C47.8921 7.38962 47.8073 7.28193 47.72 7.17098C48.5889 7.17098 49.4579 7.17098 50.3532 7.17098C50.3532 8.95857 50.3532 10.7462 50.3532 12.5879C55.2068 12.5879 60.0604 12.5879 65.061 12.5879C65.1848 9.87887 65.1848 9.87887 64.6756 7.43204C64.5148 7.3525 64.5148 7.3525 64.3545 7.30151C64.3333 7.25844 64.3121 7.21536 64.2903 7.17098C65.244 7.17098 66.1978 7.17098 67.1805 7.17098C67.1805 8.95857 67.1805 10.7462 67.1805 12.5879C72.0128 12.5879 76.8452 12.5879 81.824 12.5879C81.9579 10.0153 81.9579 10.0153 81.5029 7.56257C81.307 7.36558 81.307 7.36558 81.1175 7.23625C81.1175 7.21471 81.1175 7.19317 81.1175 7.17098C82.0713 7.17098 83.025 7.17098 84.0077 7.17098C84.0077 8.95857 84.0077 10.7462 84.0077 12.5879C88.5645 12.5879 93.1214 12.5879 97.8163 12.5879C97.9542 9.9819 97.9542 9.9819 97.4952 7.49731C97.2984 7.33473 97.2984 7.33473 97.1098 7.23625C97.1098 7.19317 97.1098 7.1501 97.1098 7.10572ZM48.0411 7.56257C48.1053 7.6931 48.1053 7.6931 48.1053 7.6931L48.0411 7.56257ZM44.262 9.59443C44.2271 9.65879 44.2271 9.65879 44.1915 9.72445C44.1549 9.78932 44.1549 9.78932 44.1175 9.85549C43.9854 10.131 43.9865 10.3784 43.9886 10.6777C43.9886 10.7211 43.9887 10.7645 43.9888 10.8093C43.9891 10.9711 43.99 11.133 43.9908 11.2949C43.9922 11.657 43.9935 12.0191 43.9948 12.3921C45.0546 12.3921 46.1143 12.3921 47.2062 12.3921C47.2062 11.3153 47.2062 10.2384 47.2062 9.12891C46.8352 9.12218 46.4643 9.11545 46.0822 9.10852C45.9662 9.10555 45.8501 9.10258 45.7306 9.09952C45.1201 9.09029 44.6834 9.09804 44.262 9.59443Z" fill="#7F5EA3"/>
<path d="M67.6864 15.7476C67.8961 15.9725 68.0133 16.1885 68.0306 16.5002C67.996 16.8041 67.8616 17.061 67.6403 17.2658C67.3971 17.4173 67.1399 17.4247 66.8593 17.4175C66.5524 17.3135 66.3996 17.1634 66.217 16.8954C66.1142 16.6864 66.1298 16.47 66.1528 16.2427C66.2626 15.9374 66.3975 15.7659 66.6666 15.5901C66.9992 15.4586 67.4032 15.5311 67.6864 15.7476Z" fill="#7F5EA3"/>
<path d="M99.165 4.16883C99.378 4.30589 99.5651 4.45967 99.6789 4.69094C99.7046 5.00289 99.7145 5.3025 99.6146 5.60056C99.3907 5.83522 99.1487 5.98079 98.8238 6.00923C98.4555 5.9871 98.2616 5.87388 98.009 5.60464C97.8458 5.32837 97.8364 5.07099 97.8805 4.75621C98.1656 4.19756 98.5713 4.00302 99.165 4.16883Z" fill="#7F5EA3"/>
<path d="M83.3012 15.6553C83.4978 15.8258 83.6727 16.0397 83.6996 16.3072C83.7079 16.7238 83.6437 16.93 83.3574 17.238C83.1048 17.3942 82.8895 17.4384 82.5947 17.4175C82.3327 17.339 82.1422 17.2206 81.9525 17.0218C81.8499 16.7155 81.8335 16.4311 81.8882 16.1122C82.0284 15.8278 82.2062 15.6877 82.4863 15.5534C82.7838 15.5175 83.0247 15.5333 83.3012 15.6553Z" fill="#7F5EA3"/>
<path d="M65.8097 15.7469C66.0563 16.0449 66.1078 16.2411 66.1024 16.618C66.0762 16.8971 65.9428 17.0407 65.7595 17.238C65.509 17.393 65.2887 17.4311 64.9968 17.4175C64.7248 17.3184 64.5407 17.1848 64.3545 16.9606C64.2675 16.6952 64.2562 16.4551 64.2903 16.1775C64.4483 15.8679 64.6206 15.6594 64.9446 15.5371C65.2493 15.5164 65.5688 15.5397 65.8097 15.7469Z" fill="#7F5EA3"/>
<path d="M93.5131 19.2449C94.4456 19.2449 95.3782 19.2449 96.339 19.2449C96.339 19.3526 96.339 19.4603 96.339 19.5712C96.1059 19.5712 95.8727 19.5712 95.6325 19.5712C95.6325 20.325 95.6325 21.0788 95.6325 21.8555C96.3743 21.8555 97.1161 21.8555 97.8804 21.8555C97.8804 21.1017 97.8804 20.3479 97.8804 19.5712C97.6473 19.5712 97.4142 19.5712 97.1739 19.5712C97.1739 19.4635 97.1739 19.3558 97.1739 19.2449C98.1065 19.2449 99.0391 19.2449 99.9999 19.2449C99.9999 19.3526 99.9999 19.4603 99.9999 19.5712C99.7668 19.5712 99.5336 19.5712 99.2934 19.5712C99.2934 21.2511 99.2934 22.931 99.2934 24.6618C99.4842 24.6618 99.6749 24.6618 99.8714 24.6618C99.9999 24.7924 99.9999 24.7924 99.9999 24.9881C99.0673 24.9881 98.1348 24.9881 97.1739 24.9881C97.1739 24.8805 97.1739 24.7728 97.1739 24.6618C97.4071 24.6618 97.6402 24.6618 97.8804 24.6618C97.8804 23.8434 97.8804 23.025 97.8804 22.1818C97.1386 22.1818 96.3968 22.1818 95.6325 22.1818C95.6325 23.0002 95.6325 23.8186 95.6325 24.6618C95.8233 24.6618 96.014 24.6618 96.2106 24.6618C96.339 24.7924 96.339 24.7924 96.339 24.9881C95.4064 24.9881 94.4739 24.9881 93.5131 24.9881C93.5131 24.8805 93.5131 24.7728 93.5131 24.6618C93.7462 24.6618 93.9793 24.6618 94.2195 24.6618C94.2195 22.9819 94.2195 21.302 94.2195 19.5712C93.9864 19.5712 93.7533 19.5712 93.5131 19.5712C93.5131 19.4635 93.5131 19.3558 93.5131 19.2449Z" fill="#E1CABF"/>
<path d="M69.3641 19.2449C69.8376 19.2388 70.3111 19.2342 70.7846 19.2314C71.0046 19.23 71.2245 19.2282 71.4444 19.2252C71.6981 19.2218 71.9517 19.2205 72.2054 19.2194C72.2832 19.218 72.3611 19.2167 72.4413 19.2153C72.9782 19.2152 73.5235 19.2601 73.9413 19.6374C74.2001 19.9184 74.2966 20.1184 74.3256 20.5012C74.3021 20.8588 74.2436 21.1337 73.9942 21.3981C73.8667 21.5114 73.7362 21.6186 73.6031 21.7249C73.5395 21.7895 73.5395 21.7895 73.4746 21.8555C73.5111 21.8651 73.5476 21.8746 73.5852 21.8845C74.0553 22.0233 74.3662 22.2199 74.6267 22.6468C74.7838 23.1016 74.7584 23.5967 74.5664 24.0337C74.3172 24.4781 73.9499 24.7167 73.4844 24.8874C73.0192 25.0067 72.5569 24.9967 72.0799 24.9945C72.0022 24.9944 71.9244 24.9943 71.8443 24.9942C71.5969 24.9939 71.3496 24.9931 71.1023 24.9922C70.9341 24.9919 70.766 24.9916 70.5979 24.9913C70.1866 24.9906 69.7754 24.9895 69.3641 24.9882C69.3641 24.8805 69.3641 24.7728 69.3641 24.6618C69.5973 24.6618 69.8304 24.6618 70.0706 24.6618C70.0706 22.9819 70.0706 21.302 70.0706 19.5712C69.8375 19.5712 69.6043 19.5712 69.3641 19.5712C69.3641 19.4635 69.3641 19.3558 69.3641 19.2449ZM71.4194 19.5712C71.4194 20.2819 71.4194 20.9927 71.4194 21.7249C72.077 21.7426 72.077 21.7426 72.6276 21.4516C72.8639 21.1429 72.9112 20.8638 72.8885 20.4808C72.8506 20.1855 72.7721 19.9947 72.5754 19.767C72.1974 19.4985 72.1974 19.4985 71.4194 19.5712ZM71.4194 22.0513C71.4194 22.9127 71.4194 23.7742 71.4194 24.6618C72.2819 24.7029 72.2819 24.7029 72.9528 24.2866C73.2293 23.8568 73.276 23.4026 73.2177 22.8997C73.1175 22.5849 72.9592 22.3258 72.7039 22.1165C72.2972 21.9788 71.8481 22.0513 71.4194 22.0513Z" fill="#B69C92"/>
<path d="M41.8112 19.2449C43.3597 19.1094 43.3597 19.1094 43.7289 19.394C43.9147 19.5832 44.0488 19.802 44.1875 20.0281C44.2849 20.1518 44.3839 20.2742 44.4846 20.3952C44.5311 20.4539 44.5776 20.5126 44.6256 20.5731C44.7641 20.7442 44.9077 20.9086 45.0546 21.0723C45.3571 21.41 45.6381 21.7622 45.9216 22.1165C46.1548 22.3965 46.3879 22.6765 46.6281 22.965C46.6493 21.845 46.6705 20.7251 46.6923 19.5712C46.438 19.5712 46.1837 19.5712 45.9216 19.5712C45.9216 19.4635 45.9216 19.3558 45.9216 19.2449C46.5787 19.2449 47.2357 19.2449 47.9126 19.2449C47.9126 19.3526 47.9126 19.4603 47.9126 19.5712C47.6583 19.5712 47.404 19.5712 47.1419 19.5712C47.1419 21.3373 47.1419 23.1033 47.1419 24.9229C46.9088 25.0019 46.7446 25.0132 46.4997 24.9882C46.3356 24.8564 46.3356 24.8564 46.1866 24.6741C46.1045 24.5756 46.1045 24.5756 46.0207 24.4752C45.9662 24.407 45.9117 24.3387 45.8574 24.2702C45.8081 24.2093 45.7589 24.1484 45.7081 24.0857C45.6122 23.9666 45.5167 23.8472 45.4216 23.7275C45.2822 23.5558 45.1379 23.3905 44.9903 23.226C44.7388 22.9456 44.503 22.6548 44.2683 22.3597C44.0845 22.1342 43.8914 21.9186 43.6953 21.704C43.4849 21.4588 43.2922 21.1985 43.0957 20.9418C43.0745 22.1694 43.0533 23.397 43.0315 24.6618C43.2434 24.6618 43.4553 24.6618 43.6737 24.6618C43.8022 24.7924 43.8022 24.7924 43.8022 24.9882C43.1451 24.9882 42.4881 24.9882 41.8112 24.9882C41.8112 24.8805 41.8112 24.7728 41.8112 24.6618C42.0655 24.6618 42.3198 24.6618 42.5819 24.6618C42.5819 22.9819 42.5819 21.302 42.5819 19.5712C42.3275 19.5712 42.0732 19.5712 41.8112 19.5712C41.8112 19.4635 41.8112 19.3558 41.8112 19.2449Z" fill="#87695F"/>
<path d="M58.2993 19.2385C58.498 19.2406 58.6966 19.2428 58.8952 19.2449C59.1773 19.8463 59.4303 20.4558 59.6738 21.0741C59.7779 21.3384 59.8827 21.6024 59.9875 21.8664C60.0087 21.9198 60.03 21.9732 60.0518 22.0282C60.196 22.3903 60.343 22.7511 60.4923 23.111C60.5216 23.1817 60.5216 23.1817 60.5515 23.2538C60.6443 23.477 60.7374 23.7001 60.8309 23.923C60.8636 24.0015 60.8964 24.08 60.9301 24.1609C60.959 24.2296 60.9878 24.2983 61.0175 24.3691C61.0789 24.5313 61.0789 24.5313 61.0789 24.6618C61.2272 24.6618 61.3756 24.6618 61.5285 24.6618C61.5497 24.7695 61.5709 24.8772 61.5927 24.9881C60.7449 24.9881 59.8971 24.9881 59.0236 24.9881C59.0236 24.8804 59.0236 24.7728 59.0236 24.6618C59.3098 24.6295 59.3098 24.6295 59.6017 24.5965C59.5842 24.5521 59.5667 24.5077 59.5486 24.4619C59.4696 24.2608 59.3911 24.0595 59.3127 23.8582C59.2851 23.7883 59.2575 23.7183 59.2291 23.6463C59.203 23.5792 59.177 23.5121 59.1501 23.443C59.1259 23.3811 59.1017 23.3192 59.0767 23.2555C59.0236 23.0955 59.0236 23.0955 59.0236 22.8997C58.409 22.8997 57.7944 22.8997 57.1611 22.8997C57.1399 23.0289 57.1187 23.1581 57.0969 23.2913C57.0605 23.405 57.0209 23.5178 56.9782 23.6293C56.9552 23.6899 56.9322 23.7505 56.9086 23.8129C56.8846 23.875 56.8606 23.937 56.8359 24.001C56.8117 24.0646 56.7875 24.1282 56.7626 24.1937C56.7031 24.3499 56.6431 24.5059 56.5831 24.6618C56.795 24.6618 57.0069 24.6618 57.2253 24.6618C57.2465 24.7695 57.2677 24.8772 57.2895 24.9881C56.6961 24.9881 56.1026 24.9881 55.4912 24.9881C55.4912 24.8804 55.4912 24.7728 55.4912 24.6618C55.7773 24.6295 55.7773 24.6295 56.0692 24.5965C56.2326 24.1683 56.3959 23.74 56.559 23.3117C56.5834 23.2475 56.6078 23.1834 56.633 23.1174C56.9015 22.4121 57.169 21.7064 57.4315 20.9989C57.4524 20.9427 57.4733 20.8865 57.4947 20.8286C57.5935 20.5622 57.692 20.2957 57.7902 20.029C57.8254 19.9339 57.8605 19.8389 57.8957 19.7438C57.9115 19.7004 57.9274 19.657 57.9438 19.6124C58.0793 19.2465 58.0793 19.2465 58.2993 19.2385ZM58.0603 20.5502C57.9785 20.7568 57.897 20.9635 57.8154 21.1702C57.7925 21.2281 57.7696 21.2859 57.746 21.3456C57.6791 21.5154 57.6126 21.6853 57.5464 21.8554C57.5168 21.9309 57.5168 21.9309 57.4866 22.0079C57.4109 22.2056 57.3538 22.3592 57.3538 22.5734C57.8412 22.5734 58.3287 22.5734 58.831 22.5734C58.7787 22.3079 58.7156 22.0937 58.62 21.844C58.5912 21.7685 58.5624 21.693 58.5328 21.6152C58.5027 21.537 58.4726 21.4588 58.4416 21.3782C58.4113 21.2987 58.3809 21.2193 58.3496 21.1374C58.2748 20.9416 58.1998 20.7458 58.1245 20.5502C58.1033 20.5502 58.0821 20.5502 58.0603 20.5502Z" fill="#9F8379"/>
<path d="M82.7231 19.2449C83.6557 19.2449 84.5883 19.2449 85.5491 19.2449C85.5491 19.3526 85.5491 19.4603 85.5491 19.5712C85.2948 19.5712 85.0404 19.5712 84.7784 19.5712C84.7784 21.2511 84.7784 22.931 84.7784 24.6618C84.9903 24.6618 85.2023 24.6618 85.4206 24.6618C85.5491 24.7924 85.5491 24.7924 85.5491 24.9881C84.6165 24.9881 83.684 24.9881 82.7231 24.9881C82.7231 24.8805 82.7231 24.7728 82.7231 24.6618C82.9563 24.6618 83.1894 24.6618 83.4296 24.6618C83.4296 22.9819 83.4296 21.302 83.4296 19.5712C83.1965 19.5712 82.9634 19.5712 82.7231 19.5712C82.7231 19.4635 82.7231 19.3558 82.7231 19.2449Z" fill="#CBB3A8"/>
</svg>
