<svg width="1087" height="474" viewBox="0 0 1087 474" fill="none" xmlns="http://www.w3.org/2000/svg">
<path opacity="0.05" d="M449.148 7.56173C452.282 10.4441 455.239 13.403 458.115 16.5468C460.937 19.4496 463.75 22.0053 466.818 24.6228C475.443 32.2131 483.443 40.4335 491.501 48.6252C494.384 51.5561 497.272 54.4818 500.162 57.4062C507.332 64.6661 514.495 71.9346 521.657 79.2028C527.727 85.3621 533.801 91.5181 539.879 97.6698C542.705 100.533 545.526 103.401 548.347 106.269C556.13 114.16 563.937 121.907 572.333 129.139C579.44 135.479 586.073 142.347 592.79 149.102C593.595 149.91 594.399 150.718 595.229 151.55C599.479 155.817 603.724 160.089 607.966 164.364C612.318 168.749 616.684 173.119 621.054 177.485C624.443 180.877 627.821 184.279 631.197 187.685C632.801 189.3 634.41 190.911 636.022 192.518C649.369 205.831 661.386 218.535 661.84 238.537C661.754 267.561 646.037 281.288 626.769 300.649C623.708 303.716 620.644 306.78 617.578 309.843C613.48 313.938 609.387 318.039 605.297 322.142C604.36 323.075 603.422 324.008 602.457 324.97C595.733 331.707 595.733 331.707 593.405 340.74C593.615 349.85 599.034 354.057 605.102 360.223C606.765 362.058 608.419 363.902 610.067 365.751C611.855 367.747 613.644 369.741 615.434 371.735C616.292 372.698 617.149 373.66 618.033 374.651C623.879 381.058 628.978 386.369 637.852 387.676C644.12 386.753 645.864 385.324 650.329 380.69C653.382 374.773 655.72 368.595 658.126 362.387C676.402 317.205 699.507 275.062 728.306 235.847C728.972 234.935 729.638 234.024 730.325 233.085C755.843 198.371 785.527 163.489 819.313 136.796C823.11 133.773 826.765 130.626 830.41 127.42C860.063 101.46 893.711 80.3167 927.927 61.0906C929.18 60.3846 930.433 59.6786 931.724 58.9512C963.549 41.1823 996.79 27.0462 1031.25 15.4336C1032.82 14.9005 1032.82 14.9005 1034.43 14.3566C1045.99 10.4671 1057.63 6.92699 1069.43 3.82258C1071 3.39754 1071 3.39754 1072.59 2.9639C1077.87 1.62428 1081.84 0.809682 1087 2.8386C1084.81 3.88162 1084.81 3.88162 1082.58 4.94571C1041.59 24.5502 1002.27 45.2924 965.356 72.1113C964.263 72.9023 963.171 73.6933 962.045 74.5082C929.354 98.3225 897.936 126.102 871.783 157.128C870.555 158.542 869.327 159.957 868.061 161.414C810.669 227.966 770.691 310.251 749.926 395.708C743.112 423.744 730.069 445.857 705.315 461.42C687.886 470.723 665.895 477.141 646.137 472.397C629.857 465.197 615.948 446.956 603.504 434.298C600.804 431.551 598.098 428.811 595.392 426.071C589.657 420.263 583.928 414.45 578.2 408.635C571.529 401.863 564.855 395.094 558.175 388.331C555.532 385.653 552.893 382.97 550.255 380.287C542.799 372.723 535.289 365.341 527.25 358.403C519.766 351.705 512.755 344.472 505.663 337.357C504.807 336.499 503.95 335.641 503.068 334.757C498.544 330.223 494.026 325.684 489.511 321.141C484.879 316.483 480.228 311.842 475.574 307.206C471.966 303.605 468.372 299.989 464.781 296.37C463.073 294.654 461.36 292.943 459.642 291.237C444.708 276.401 434.829 264.32 434.625 242.636C434.585 223.052 443.215 210.338 456.469 196.636C458.58 194.516 460.698 192.404 462.824 190.3C463.95 189.173 465.075 188.045 466.234 186.883C469.791 183.32 473.358 179.768 476.927 176.217C480.522 172.631 484.115 169.043 487.703 165.45C489.928 163.224 492.156 161.002 494.389 158.785C495.389 157.786 496.389 156.787 497.419 155.757C498.302 154.879 499.184 154.001 500.094 153.097C503.264 149.64 503.761 147.496 504.511 142.762C503.698 136.394 503.246 135.453 499.211 130.997C498.22 129.9 497.228 128.804 496.207 127.674C489.902 120.967 483.498 114.37 477.025 107.83C475.651 106.425 474.278 105.019 472.864 103.571C471.531 102.223 470.198 100.874 468.825 99.4846C467.628 98.2703 466.432 97.056 465.199 95.805C459.78 90.9138 455.611 88.1124 448.368 87.0679C441.345 88.0807 439.688 90.3646 435.112 95.727C432.558 100.39 432.558 100.39 430.573 105.555C430.185 106.494 429.798 107.433 429.398 108.4C428.568 110.409 427.745 112.422 426.93 114.437C424.757 119.789 422.509 125.108 420.254 130.425C419.8 131.494 419.347 132.563 418.88 133.664C399.55 178.848 372.493 221.511 341.539 259.462C340.836 260.326 340.133 261.189 339.409 262.079C324.969 279.729 309.676 296.475 293.681 312.696C292.588 313.807 291.495 314.917 290.369 316.062C283.247 323.23 275.899 330.028 268.241 336.607C266.75 337.892 266.75 337.892 265.229 339.203C191.113 402.606 96.5828 456.56 0 473.578C0 472.539 0 471.5 0 470.429C1.67795 469.672 1.67795 469.672 3.38979 468.9C64.0012 441.411 120.224 407.321 169.484 361.963C172.661 359.058 175.889 356.238 179.152 353.433C184.656 348.587 189.865 343.477 195.04 338.28C195.793 337.527 196.545 336.775 197.321 335.999C267.78 264.569 309.429 173.435 336.378 77.7338C344.293 49.8718 356.399 27.1472 382.088 12.2849C401.253 2.76278 430.228 -7.32578 449.148 7.56173ZM380.528 76.8344C379.735 78.7971 378.959 80.7664 378.189 82.7383C377.754 83.8343 377.32 84.9302 376.873 86.0593C375.545 89.8454 375.545 89.8454 375.849 95.727C377.908 95.727 379.967 95.727 382.088 95.727C383.631 90.012 385.175 84.297 386.766 78.4088C384.708 77.8893 382.649 77.3697 380.528 76.8344ZM358.694 139.81C356.081 145.477 353.487 151.154 350.897 156.833C350.153 158.445 349.409 160.057 348.643 161.719C347.939 163.266 347.235 164.814 346.51 166.408C345.857 167.834 345.204 169.261 344.531 170.73C342.816 174.515 342.816 174.515 343.099 179.169C347.993 178.088 347.993 178.088 349.884 174.092C350.578 172.583 351.272 171.074 351.987 169.52C353.126 167.077 353.126 167.077 354.287 164.585C355.455 162.014 355.455 162.014 356.647 159.391C357.445 157.671 358.242 155.951 359.063 154.179C361.034 149.92 362.99 145.656 364.933 141.384C362.874 140.864 360.815 140.345 358.694 139.81ZM831.235 161.851C827.118 166.007 823.001 170.164 818.759 174.446C819.274 175.485 819.788 176.524 820.318 177.595C824.436 173.438 828.553 169.282 832.795 165C832.28 163.961 831.766 162.921 831.235 161.851ZM817.199 177.595C815.655 179.153 814.112 180.712 812.521 182.318C813.035 183.357 813.55 184.396 814.08 185.467C815.624 183.908 817.168 182.349 818.759 180.743C818.244 179.704 817.73 178.665 817.199 177.595ZM511.529 207.508C510.474 208.555 509.419 209.602 508.331 210.681C499.771 219.786 494.283 230.223 493.595 242.931C494.632 258.349 501.444 267.437 511.919 278.158C512.904 279.17 513.89 280.182 514.905 281.225C524.603 290.724 534.4 296.596 548.069 297.377C563.782 296.87 572.509 289.217 583.268 278.355C584.434 277.308 585.6 276.261 586.802 275.182C596.857 265.933 602.082 255.894 602.763 242.046C602.062 227.461 594.567 217.65 584.828 207.508C583.921 206.513 583.015 205.519 582.08 204.494C573.809 195.675 565.153 189.3 552.833 188.296C533.802 187.966 524.909 194.023 511.529 207.508ZM318.146 220.103C315.435 223.22 315.435 223.22 312.913 227.335C311.943 228.827 310.973 230.319 309.974 231.855C308.972 233.432 307.97 235.009 306.937 236.634C305.917 238.211 304.897 239.788 303.845 241.412C301.32 245.321 298.81 249.238 296.313 253.165C297.342 254.204 298.371 255.243 299.432 256.314C302.464 252.057 305.482 247.791 308.497 243.522C309.35 242.324 310.203 241.127 311.083 239.893C315.597 233.485 319.596 227.264 322.825 220.103C321.281 220.103 319.737 220.103 318.146 220.103ZM781.33 221.677C778.683 225.002 776.235 228.318 773.825 231.812C772.777 233.311 772.777 233.311 771.708 234.839C766.592 242.247 761.958 249.811 757.937 257.888C759.481 257.888 761.025 257.888 762.615 257.888C765.112 254.485 767.288 251.173 769.438 247.556C770.681 245.527 771.926 243.5 773.173 241.474C773.769 240.498 774.365 239.523 774.98 238.518C776.997 235.294 779.173 232.215 781.427 229.156C784.748 225.28 784.748 225.28 784.449 221.677C783.42 221.677 782.39 221.677 781.33 221.677ZM262.588 296.46C261.365 297.759 260.143 299.058 258.884 300.396C259.398 301.435 259.913 302.474 260.443 303.545C263.531 299.908 266.619 296.271 269.801 292.524C266.116 292.162 266.116 292.162 262.588 296.46ZM732.984 298.822C730.365 304.191 727.773 309.574 725.187 314.959C724.443 316.483 723.699 318.008 722.932 319.578C722.229 321.049 721.525 322.521 720.8 324.037C720.147 325.389 719.494 326.741 718.82 328.134C717.015 332.193 717.015 332.193 717.389 338.181C718.933 338.181 720.477 338.181 722.067 338.181C724.681 332.514 727.275 326.837 729.865 321.158C730.609 319.546 731.353 317.934 732.119 316.272C732.823 314.725 733.526 313.177 734.251 311.583C734.905 310.157 735.558 308.73 736.231 307.261C737.945 303.476 737.945 303.476 737.663 298.822C736.119 298.822 734.575 298.822 732.984 298.822ZM257.324 303.545C252.178 308.74 247.031 313.936 241.729 319.289C242.243 320.328 242.758 321.367 243.288 322.438C248.435 317.242 253.581 312.047 258.884 306.694C258.369 305.655 257.854 304.616 257.324 303.545ZM698.674 382.264C696.358 390.836 696.358 390.836 693.996 399.582C696.054 400.102 698.113 400.621 700.234 401.157C701.022 398.896 701.8 396.633 702.573 394.367C703.007 393.107 703.442 391.846 703.889 390.548C705.13 386.849 705.13 386.849 704.912 382.264C702.854 382.264 700.795 382.264 698.674 382.264Z" fill="#35231A"/>
</svg>
